<svg version="1.1" viewBox="0.0 0.0 645.3989501312336 195.6010498687664" fill="none" stroke="none" stroke-linecap="square" stroke-miterlimit="10" xmlns:xlink="http://www.w3.org/1999/xlink" xmlns="http://www.w3.org/2000/svg"><clipPath id="p.0"><path d="m0 0l645.3989 0l0 195.60104l-645.3989 0l0 -195.60104z" clip-rule="nonzero"/></clipPath><g clip-path="url(#p.0)"><path fill="#000000" fill-opacity="0.0" d="m0 0l645.3989 0l0 195.60104l-645.3989 0z" fill-rule="evenodd"/><path fill="#cfe2f3" d="m421.66403 31.656168l159.3386 0l0 23.622046l-159.3386 0z" fill-rule="evenodd"/><path stroke="#000000" stroke-width="1.0" stroke-linejoin="round" stroke-linecap="butt" d="m421.66403 31.656168l159.3386 0l0 23.622046l-159.3386 0z" fill-rule="evenodd"/><path fill="#000000" d="m450.88538 50.387188l0 -9.671875l1.46875 0l0 1.375q1.0625 -1.59375 3.078125 -1.59375q0.875 0 1.609375 0.3125q0.734375 0.3125 1.09375 0.828125q0.375 0.5 0.515625 1.203125q0.09375 0.453125 0.09375 1.59375l0 5.953125l-1.640625 0l0 -5.890625q0 -1.0 -0.203125 -1.484375q-0.1875 -0.5 -0.671875 -0.796875q-0.484375 -0.296875 -1.140625 -0.296875q-1.046875 0 -1.8125 0.671875q-0.75 0.65625 -0.75 2.515625l0 5.28125l-1.640625 0zm19.000702 -7.859375l-8.828125 0l0 -1.515625l8.828125 0l0 1.515625zm0 4.0625l-8.828125 0l0 -1.53125l8.828125 0l0 1.53125zm1.8168335 0.296875l1.71875 -0.140625q0.1875 1.25 0.875 1.890625q0.703125 0.625 1.6875 0.625q1.1875 0 2.0 -0.890625q0.828125 -0.890625 0.828125 -2.359375q0 -1.40625 -0.796875 -2.21875q-0.78125 -0.8125 -2.0625 -0.8125q-0.78125 0 -1.421875 0.359375q-0.640625 0.359375 -1.0 0.9375l-1.546875 -0.203125l1.296875 -6.859375l6.640625 0l0 1.5625l-5.328125 0l-0.71875 3.59375q1.203125 -0.84375 2.515625 -0.84375q1.75 0 2.953125 1.21875q1.203125 1.203125 1.203125 3.109375q0 1.8125 -1.046875 3.140625q-1.296875 1.625 -3.515625 1.625q-1.8125 0 -2.96875 -1.015625q-1.15625 -1.03125 -1.3125 -2.71875zm10.375732 -0.03125l1.640625 -0.21875q0.28125 1.40625 0.953125 2.015625q0.6875 0.609375 1.65625 0.609375q1.15625 0 1.953125 -0.796875q0.796875 -0.796875 0.796875 -1.984375q0 -1.125 -0.734375 -1.859375q-0.734375 -0.734375 -1.875 -0.734375q-0.46875 0 -1.15625 0.171875l0.1875 -1.4375q0.15625 0.015625 0.265625 0.015625q1.046875 0 1.875 -0.546875q0.84375 -0.546875 0.84375 -1.671875q0 -0.90625 -0.609375 -1.5q-0.609375 -0.59375 -1.578125 -0.59375q-0.953125 0 -1.59375 0.609375q-0.640625 0.59375 -0.8125 1.796875l-1.640625 -0.296875q0.296875 -1.640625 1.359375 -2.546875q1.0625 -0.90625 2.65625 -0.90625q1.09375 0 2.0 0.46875q0.921875 0.46875 1.40625 1.28125q0.5 0.8125 0.5 1.71875q0 0.859375 -0.46875 1.578125q-0.46875 0.703125 -1.375 1.125q1.1875 0.28125 1.84375 1.140625q0.65625 0.859375 0.65625 2.15625q0 1.734375 -1.28125 2.953125q-1.265625 1.21875 -3.21875 1.21875q-1.765625 0 -2.921875 -1.046875q-1.15625 -1.046875 -1.328125 -2.71875zm18.875702 -6.546875l-1.625 0.125q-0.21875 -0.96875 -0.625 -1.40625q-0.65625 -0.703125 -1.640625 -0.703125q-0.78125 0 -1.375 0.4375q-0.765625 0.5625 -1.21875 1.65625q-0.453125 1.078125 -0.46875 3.078125q0.59375 -0.890625 1.453125 -1.328125q0.859375 -0.4375 1.796875 -0.4375q1.640625 0 2.78125 1.203125q1.15625 1.203125 1.15625 3.109375q0 1.265625 -0.546875 2.34375q-0.53125 1.078125 -1.484375 1.65625q-0.9375 0.578125 -2.140625 0.578125q-2.0625 0 -3.359375 -1.5q-1.28125 -1.515625 -1.28125 -4.984375q0 -3.875 1.421875 -5.625q1.25 -1.53125 3.375 -1.53125q1.5625 0 2.5625 0.890625q1.015625 0.875 1.21875 2.4375zm-6.6875 5.75q0 0.84375 0.359375 1.625q0.359375 0.765625 1.0 1.171875q0.640625 0.40625 1.359375 0.40625q1.03125 0 1.78125 -0.828125q0.75 -0.84375 0.75 -2.28125q0 -1.390625 -0.734375 -2.1875q-0.734375 -0.796875 -1.859375 -0.796875q-1.109375 0 -1.890625 0.796875q-0.765625 0.796875 -0.765625 2.09375zm14.199646 4.328125l0 -9.671875l1.46875 0l0 1.359375q0.453125 -0.71875 1.203125 -1.140625q0.765625 -0.4375 1.71875 -0.4375q1.078125 0 1.765625 0.453125q0.6875 0.4375 0.96875 1.234375q1.15625 -1.6875 2.984375 -1.6875q1.453125 0 2.21875 0.796875q0.78125 0.796875 0.78125 2.453125l0 6.640625l-1.640625 0l0 -6.09375q0 -0.984375 -0.15625 -1.40625q-0.15625 -0.4375 -0.578125 -0.703125q-0.421875 -0.265625 -0.984375 -0.265625q-1.015625 0 -1.6875 0.6875q-0.671875 0.671875 -0.671875 2.15625l0 5.625l-1.640625 0l0 -6.28125q0 -1.09375 -0.40625 -1.640625q-0.40625 -0.546875 -1.3125 -0.546875q-0.6875 0 -1.28125 0.359375q-0.59375 0.359375 -0.859375 1.0625q-0.25 0.703125 -0.25 2.03125l0 5.015625l-1.640625 0zm24.165833 -7.859375l-8.828125 0l0 -1.515625l8.828125 0l0 1.515625zm0 4.0625l-8.828125 0l0 -1.53125l8.828125 0l0 1.53125zm2.1605835 -7.796875l0 -1.890625l1.765625 0l0 1.5q0 1.21875 -0.28125 1.75q-0.390625 0.75 -1.21875 1.109375l-0.40625 -0.640625q0.484375 -0.203125 0.71875 -0.625q0.25 -0.4375 0.28125 -1.203125l-0.859375 0zm2.9885254 11.59375l5.125 -13.359375l1.90625 0l5.46875 13.359375l-2.015625 0l-1.546875 -4.046875l-5.59375 0l-1.46875 4.046875l-1.875 0zm3.859375 -5.484375l4.53125 0l-1.40625 -3.703125q-0.625 -1.6875 -0.9375 -2.765625q-0.265625 1.28125 -0.71875 2.546875l-1.46875 3.921875zm8.3550415 -6.109375l0 -1.890625l1.765625 0l0 1.5q0 1.21875 -0.28125 1.75q-0.390625 0.75 -1.21875 1.109375l-0.40625 -0.640625q0.484375 -0.203125 0.71875 -0.625q0.25 -0.4375 0.28125 -1.203125l-0.859375 0z" fill-rule="nonzero"/><path fill="#cfe2f3" d="m421.66403 55.278214l159.3386 0l0 23.622047l-159.3386 0z" fill-rule="evenodd"/><path stroke="#000000" stroke-width="1.0" stroke-linejoin="round" stroke-linecap="butt" d="m421.66403 55.278214l159.3386 0l0 23.622047l-159.3386 0z" fill-rule="evenodd"/><path fill="#000000" d="m451.41373 74.00924l0 -9.671875l1.46875 0l0 1.375q1.0625 -1.59375 3.078125 -1.59375q0.875 0 1.609375 0.3125q0.734375 0.3125 1.09375 0.828125q0.375 0.5 0.515625 1.203125q0.09375 0.453125 0.09375 1.59375l0 5.953125l-1.640625 0l0 -5.890625q0 -1.0 -0.203125 -1.484375q-0.1875 -0.5 -0.671875 -0.796875q-0.484375 -0.296875 -1.140625 -0.296875q-1.046875 0 -1.8125 0.671875q-0.75 0.65625 -0.75 2.515625l0 5.28125l-1.640625 0zm19.000702 -7.859375l-8.828125 0l0 -1.515625l8.828125 0l0 1.515625zm0 4.0625l-8.828125 0l0 -1.53125l8.828125 0l0 1.53125zm7.9887085 3.796875l-1.640625 0l0 -10.453129q-0.59375 0.5625038 -1.5625 1.1406288q-0.953125 0.5625 -1.71875 0.84375l0 -1.5937538q1.375 -0.640625 2.40625 -1.5625q1.03125 -0.921875 1.453125 -1.78125l1.0625 0l0 13.406254zm8.990295 0l-1.640625 0l0 -10.453129q-0.59375 0.5625038 -1.5625 1.1406288q-0.953125 0.5625 -1.71875 0.84375l0 -1.5937538q1.375 -0.640625 2.40625 -1.5625q1.03125 -0.921875 1.453125 -1.78125l1.0625 0l0 13.406254zm20.206879 0l0 -9.671875l1.46875 0l0 1.359375q0.453125 -0.71875 1.203125 -1.140625q0.765625 -0.4375 1.71875 -0.4375q1.0781555 0 1.7656555 0.453125q0.6875 0.4375 0.96875 1.234375q1.15625 -1.6875 2.984375 -1.6875q1.453125 0 2.21875 0.796875q0.78125 0.796875 0.78125 2.453125l0 6.640625l-1.640625 0l0 -6.09375q0 -0.984375 -0.15625 -1.40625q-0.15625 -0.4375 -0.578125 -0.703125q-0.421875 -0.265625 -0.984375 -0.265625q-1.015625 0 -1.6875 0.6875q-0.671875 0.671875 -0.671875 2.15625l0 5.625l-1.640625 0l0 -6.28125q0 -1.09375 -0.40625 -1.640625q-0.40625 -0.546875 -1.3125305 -0.546875q-0.6875 0 -1.28125 0.359375q-0.59375 0.359375 -0.859375 1.0625q-0.25 0.703125 -0.25 2.03125l0 5.015625l-1.640625 0zm24.165802 -7.859375l-8.828125 0l0 -1.515625l8.828125 0l0 1.515625zm0 4.0625l-8.828125 0l0 -1.53125l8.828125 0l0 1.53125zm2.1605835 -7.796879l0 -1.890625l1.765625 0l0 1.5q0 1.21875 -0.28125 1.75q-0.390625 0.7500038 -1.21875 1.1093788l-0.40625 -0.640625q0.484375 -0.203125 0.71875 -0.6250038q0.25 -0.4375 0.28125 -1.203125l-0.859375 0zm3.3948364 11.593754l0 -1.640625l6.84375 -8.546879q0.71875 -0.921875 1.375 -1.59375l-7.453125 0l0 -1.578125l9.578125 0l0 1.578125l-7.5 9.265629l-0.8125 0.9375l8.53125 0l0 1.578125l-10.5625 0zm12.145996 -11.593754l0 -1.890625l1.765625 0l0 1.5q0 1.21875 -0.28125 1.75q-0.390625 0.7500038 -1.21875 1.1093788l-0.40625 -0.640625q0.484375 -0.203125 0.71875 -0.6250038q0.25 -0.4375 0.28125 -1.203125l-0.859375 0z" fill-rule="nonzero"/><path fill="#cfe2f3" d="m421.66403 78.90026l159.3386 0l0 23.622047l-159.3386 0z" fill-rule="evenodd"/><path stroke="#000000" stroke-width="1.0" stroke-linejoin="round" stroke-linecap="butt" d="m421.66403 78.90026l159.3386 0l0 23.622047l-159.3386 0z" fill-rule="evenodd"/><path fill="#000000" d="m449.67798 97.63129l0 -9.671875l1.46875 0l0 1.375q1.0625 -1.59375 3.078125 -1.59375q0.875 0 1.609375 0.3125q0.734375 0.3125 1.09375 0.828125q0.375 0.5 0.515625 1.203125q0.09375 0.453125 0.09375 1.59375l0 5.953125l-1.640625 0l0 -5.890625q0 -1.0 -0.203125 -1.484375q-0.1875 -0.5 -0.671875 -0.796875q-0.484375 -0.296875 -1.140625 -0.296875q-1.046875 0 -1.8125 0.671875q-0.75 0.65625 -0.75 2.515625l0 5.28125l-1.640625 0zm19.000702 -7.859375l-8.828125 0l0 -1.515625l8.828125 0l0 1.515625zm0 4.0625l-8.828125 0l0 -1.53125l8.828125 0l0 1.53125zm7.9887085 3.796875l-1.640625 0l0 -10.453125q-0.59375 0.5625 -1.5625 1.140625q-0.953125 0.5625 -1.71875 0.84375l0 -1.59375q1.375 -0.640625 2.40625 -1.5625q1.03125 -0.921875 1.453125 -1.78125l1.0625 0l0 13.40625zm4.2038574 -6.59375q0 -2.359375 0.484375 -3.796875q0.484375 -1.453125 1.4375 -2.234375q0.96875 -0.78125 2.421875 -0.78125q1.078125 0 1.890625 0.4375q0.8125 0.421875 1.328125 1.25q0.53125 0.8125 0.828125 1.984375q0.3125 1.15625 0.3125 3.140625q0 2.359375 -0.484375 3.8125q-0.484375 1.4375 -1.453125 2.234375q-0.953125 0.78125 -2.421875 0.78125q-1.921875 0 -3.03125 -1.390625q-1.3125 -1.671875 -1.3125 -5.4375zm1.671875 0q0 3.296875 0.765625 4.390625q0.78125 1.078125 1.90625 1.078125q1.140625 0 1.90625 -1.09375q0.765625 -1.09375 0.765625 -4.375q0 -3.296875 -0.765625 -4.375q-0.765625 -1.078125 -1.921875 -1.078125q-1.125 0 -1.796875 0.953125q-0.859375 1.21875 -0.859375 4.5zm8.703827 3.0625l1.640625 -0.21875q0.28125 1.40625 0.953125 2.015625q0.6875 0.609375 1.65625 0.609375q1.15625 0 1.953125 -0.796875q0.796875 -0.796875 0.796875 -1.984375q0 -1.125 -0.734375 -1.859375q-0.734375 -0.734375 -1.875 -0.734375q-0.46875 0 -1.15625 0.171875l0.1875 -1.4375q0.15625 0.015625 0.265625 0.015625q1.046875 0 1.875 -0.546875q0.84375 -0.546875 0.84375 -1.671875q0 -0.90625 -0.609375 -1.5q-0.609375 -0.59375 -1.578125 -0.59375q-0.953125 0 -1.59375 0.609375q-0.640625 0.59375 -0.8125 1.796875l-1.640625 -0.296875q0.296875 -1.640625 1.359375 -2.546875q1.0625 -0.90625 2.65625 -0.90625q1.09375 0 2.0 0.46875q0.921875 0.46875 1.40625 1.28125q0.5 0.8125 0.5 1.71875q0 0.859375 -0.46875 1.578125q-0.46875 0.703125 -1.375 1.125q1.1875 0.28125 1.84375 1.140625q0.65625 0.859375 0.65625 2.15625q0 1.734375 -1.28125 2.953125q-1.265625 1.21875 -3.21875 1.21875q-1.765625 0 -2.921875 -1.046875q-1.15625 -1.046875 -1.328125 -2.71875zm16.012146 3.53125l0 -9.671875l1.46875 0l0 1.359375q0.453125 -0.71875 1.203125 -1.140625q0.765625 -0.4375 1.71875 -0.4375q1.078125 0 1.765625 0.453125q0.6875 0.4375 0.96875 1.234375q1.15625 -1.6875 2.984375 -1.6875q1.453125 0 2.21875 0.796875q0.78125 0.796875 0.78125 2.453125l0 6.640625l-1.640625 0l0 -6.09375q0 -0.984375 -0.15625 -1.40625q-0.15625 -0.4375 -0.578125 -0.703125q-0.421875 -0.265625 -0.984375 -0.265625q-1.015625 0 -1.6875 0.6875q-0.671875 0.671875 -0.671875 2.15625l0 5.625l-1.640625 0l0 -6.28125q0 -1.09375 -0.40625 -1.640625q-0.40625 -0.546875 -1.3125 -0.546875q-0.6875 0 -1.28125 0.359375q-0.59375 0.359375 -0.859375 1.0625q-0.25 0.703125 -0.25 2.03125l0 5.015625l-1.640625 0zm24.165833 -7.859375l-8.828125 0l0 -1.515625l8.828125 0l0 1.515625zm0 4.0625l-8.828125 0l0 -1.53125l8.828125 0l0 1.53125zm2.1605835 -7.796875l0 -1.890625l1.765625 0l0 1.5q0 1.21875 -0.28125 1.75q-0.390625 0.75 -1.21875 1.109375l-0.40625 -0.640625q0.484375 -0.203125 0.71875 -0.625q0.25 -0.4375 0.28125 -1.203125l-0.859375 0zm4.4572754 11.59375l0 -13.359375l4.609375 0q1.546875 0 2.375 0.203125q1.140625 0.25 1.953125 0.953125q1.0625 0.890625 1.578125 2.28125q0.53125 1.390625 0.53125 3.171875q0 1.515625 -0.359375 2.703125q-0.359375 1.171875 -0.921875 1.9375q-0.546875 0.765625 -1.203125 1.21875q-0.65625 0.4375 -1.59375 0.671875q-0.9375 0.21875 -2.140625 0.21875l-4.828125 0zm1.765625 -1.578125l2.859375 0q1.3125 0 2.0625 -0.234375q0.75 -0.25 1.203125 -0.703125q0.625 -0.625 0.96875 -1.6875q0.359375 -1.0625 0.359375 -2.578125q0 -2.09375 -0.6875 -3.21875q-0.6875 -1.125 -1.671875 -1.5q-0.703125 -0.28125 -2.28125 -0.28125l-2.8125 0l0 10.203125zm11.394836 -10.015625l0 -1.890625l1.765625 0l0 1.5q0 1.21875 -0.28125 1.75q-0.390625 0.75 -1.21875 1.109375l-0.40625 -0.640625q0.484375 -0.203125 0.71875 -0.625q0.25 -0.4375 0.28125 -1.203125l-0.859375 0z" fill-rule="nonzero"/><path fill="#cfe2f3" d="m421.66403 161.6483l159.3386 0l0 23.62204l-159.3386 0z" fill-rule="evenodd"/><path stroke="#000000" stroke-width="1.0" stroke-linejoin="round" stroke-linecap="butt" d="m421.66403 161.6483l159.3386 0l0 23.62204l-159.3386 0z" fill-rule="evenodd"/><path fill="#000000" d="m451.74155 180.37932l0 -9.671875l1.46875 0l0 1.375q1.0625 -1.59375 3.078125 -1.59375q0.875 0 1.609375 0.3125q0.734375 0.3125 1.09375 0.828125q0.375 0.5 0.515625 1.203125q0.09375 0.453125 0.09375 1.59375l0 5.953125l-1.640625 0l0 -5.890625q0 -1.0 -0.203125 -1.484375q-0.1875 -0.5 -0.671875 -0.796875q-0.484375 -0.296875 -1.140625 -0.296875q-1.046875 0 -1.8125 0.671875q-0.75 0.65625 -0.75 2.515625l0 5.28125l-1.640625 0zm19.000732 -7.859375l-8.828125 0l0 -1.515625l8.828125 0l0 1.515625zm0 4.0625l-8.828125 0l0 -1.53125l8.828125 0l0 1.53125zm1.9262085 -7.8125l0 -1.578125l8.640625 0l0 1.28125q-1.28125 1.359375 -2.53125 3.609375q-1.25 2.25 -1.9375 4.625q-0.484375 1.671875 -0.625 3.671875l-1.6875 0q0.03125 -1.578125 0.625 -3.8125q0.59375 -2.234375 1.6875 -4.296875q1.109375 -2.078125 2.359375 -3.5l-6.53125 0zm10.500702 8.515625l1.578125 -0.140625q0.203125 1.109375 0.765625 1.609375q0.5625 0.5 1.453125 0.5q0.75 0 1.3125 -0.34375q0.578125 -0.34375 0.9375 -0.921875q0.375 -0.578125 0.609375 -1.5625q0.25 -0.984375 0.25 -2.0q0 -0.109375 0 -0.328125q-0.5 0.78125 -1.359375 1.265625q-0.84375 0.484375 -1.828125 0.484375q-1.671875 0 -2.8125 -1.203125q-1.140625 -1.203125 -1.140625 -3.171875q0 -2.03125 1.1875 -3.265625q1.203125 -1.234375 3.0 -1.234375q1.3125 0 2.390625 0.703125q1.078125 0.703125 1.640625 2.0q0.5625 1.296875 0.5625 3.75q0 2.5625 -0.5625 4.078125q-0.5625 1.515625 -1.65625 2.3125q-1.09375 0.796875 -2.578125 0.796875q-1.5625 0 -2.5625 -0.875q-0.984375 -0.875 -1.1875 -2.453125zm6.71875 -5.890625q0 -1.40625 -0.75 -2.234375q-0.75 -0.828125 -1.8125 -0.828125q-1.09375 0 -1.90625 0.890625q-0.8125 0.890625 -0.8125 2.3125q0 1.28125 0.765625 2.078125q0.78125 0.796875 1.90625 0.796875q1.140625 0 1.875 -0.796875q0.734375 -0.796875 0.734375 -2.21875zm5.9382324 1.75q-1.015625 -0.375 -1.515625 -1.0625q-0.484375 -0.703125 -0.484375 -1.671875q0 -1.453125 1.046875 -2.4375q1.046875 -1.0 2.78125 -1.0q1.75 0 2.8125 1.015625q1.078125 1.015625 1.078125 2.46875q0 0.9375 -0.5 1.625q-0.484375 0.6875 -1.46875 1.0625q1.21875 0.390625 1.859375 1.28125q0.65625 0.890625 0.65625 2.140625q0 1.703125 -1.21875 2.875q-1.21875 1.171875 -3.1875 1.171875q-1.984375 0 -3.203125 -1.171875q-1.203125 -1.171875 -1.203125 -2.921875q0 -1.3125 0.65625 -2.1875q0.671875 -0.875 1.890625 -1.1875zm-0.328125 -2.78125q0 0.9375 0.609375 1.546875q0.609375 0.59375 1.59375 0.59375q0.9375 0 1.546875 -0.59375q0.609375 -0.59375 0.609375 -1.453125q0 -0.90625 -0.625 -1.515625q-0.625 -0.625 -1.5625 -0.625q-0.9375 0 -1.5625 0.609375q-0.609375 0.59375 -0.609375 1.4375zm-0.53125 6.15625q0 0.703125 0.328125 1.359375q0.34375 0.65625 1.0 1.015625q0.65625 0.359375 1.40625 0.359375q1.171875 0 1.9375 -0.75q0.765625 -0.75 0.765625 -1.921875q0 -1.1875 -0.796875 -1.953125q-0.78125 -0.78125 -1.953125 -0.78125q-1.15625 0 -1.921875 0.765625q-0.765625 0.765625 -0.765625 1.90625zm14.355896 3.859375l0 -9.671875l1.46875 0l0 1.359375q0.453125 -0.71875 1.203125 -1.140625q0.765625 -0.4375 1.71875 -0.4375q1.078125 0 1.765625 0.453125q0.6875 0.4375 0.96875 1.234375q1.15625 -1.6875 2.984375 -1.6875q1.453125 0 2.21875 0.796875q0.78125 0.796875 0.78125 2.453125l0 6.640625l-1.640625 0l0 -6.09375q0 -0.984375 -0.15625 -1.40625q-0.15625 -0.4375 -0.578125 -0.703125q-0.421875 -0.265625 -0.984375 -0.265625q-1.015625 0 -1.6875 0.6875q-0.671875 0.671875 -0.671875 2.15625l0 5.625l-1.640625 0l0 -6.28125q0 -1.09375 -0.40625 -1.640625q-0.40625 -0.546875 -1.3125 -0.546875q-0.6875 0 -1.28125 0.359375q-0.59375 0.359375 -0.859375 1.0625q-0.25 0.703125 -0.25 2.03125l0 5.015625l-1.640625 0zm24.165771 -7.859375l-8.828125 0l0 -1.515625l8.828125 0l0 1.515625zm0 4.0625l-8.828125 0l0 -1.53125l8.828125 0l0 1.53125zm2.1605835 -7.796875l0 -1.890625l1.765625 0l0 1.5q0 1.21875 -0.28125 1.75q-0.390625 0.75 -1.21875 1.109375l-0.40625 -0.640625q0.484375 -0.203125 0.71875 -0.625q0.25 -0.4375 0.28125 -1.203125l-0.859375 0zm4.3792114 11.59375l0 -13.359375l1.78125 0l0 11.78125l6.5625 0l0 1.578125l-8.34375 0zm9.111389 -11.59375l0 -1.890625l1.765625 0l0 1.5q0 1.21875 -0.28125 1.75q-0.390625 0.75 -1.21875 1.109375l-0.40625 -0.640625q0.484375 -0.203125 0.71875 -0.625q0.25 -0.4375 0.28125 -1.203125l-0.859375 0z" fill-rule="nonzero"/><path fill="#cfe2f3" d="m421.66403 102.52231l159.3411 0l0 18.945084c-79.67053 0 -79.67053 7.2184296 -159.3411 3.1170502z" fill-rule="evenodd"/><path stroke="#000000" stroke-width="1.0" stroke-linejoin="round" stroke-linecap="butt" d="m421.66403 102.52231l159.3411 0l0 18.945084c-79.67053 0 -79.67053 7.2184296 -159.3411 3.1170502z" fill-rule="evenodd"/><path fill="#cfe2f3" d="m581.00385 161.64755l-159.34113 0l0 -18.945084c79.67056 0 79.67056 -7.2184143 159.34113 -3.117035z" fill-rule="evenodd"/><path stroke="#000000" stroke-width="1.0" stroke-linejoin="round" stroke-linecap="butt" d="m581.00385 161.64755l-159.34113 0l0 -18.945084c79.67056 0 79.67056 -7.2184143 159.34113 -3.117035z" fill-rule="evenodd"/><path fill="#cfe2f3" d="m19.587927 118.33866l0 0c0 -2.1743927 1.7626934 -3.937088 3.937086 -3.937088l56.125828 0c1.0441818 0 2.0455933 0.41480255 2.7839432 1.1531448c0.7383423 0.7383499 1.1531448 1.7397614 1.1531448 2.7839432l0 15.747871c0 2.1743927 -1.7626953 3.937088 -3.937088 3.937088l-56.125828 0c-2.1743927 0 -3.937086 -1.7626953 -3.937086 -3.937088z" fill-rule="evenodd"/><path stroke="#000000" stroke-width="1.0" stroke-linejoin="round" stroke-linecap="butt" d="m19.587927 118.33866l0 0c0 -2.1743927 1.7626934 -3.937088 3.937086 -3.937088l56.125828 0c1.0441818 0 2.0455933 0.41480255 2.7839432 1.1531448c0.7383423 0.7383499 1.1531448 1.7397614 1.1531448 2.7839432l0 15.747871c0 2.1743927 -1.7626953 3.937088 -3.937088 3.937088l-56.125828 0c-2.1743927 0 -3.937086 -1.7626953 -3.937086 -3.937088z" fill-rule="evenodd"/><path fill="#000000" d="m47.63444 133.1326l0 -9.671875l1.46875 0l0 1.375q1.0625 -1.59375 3.078125 -1.59375q0.875 0 1.609375 0.3125q0.734375 0.3125 1.09375 0.828125q0.375 0.5 0.515625 1.203125q0.09375 0.453125 0.09375 1.59375l0 5.953125l-1.640625 0l0 -5.890625q0 -1.0 -0.203125 -1.484375q-0.1875 -0.5 -0.671875 -0.796875q-0.484375 -0.296875 -1.140625 -0.296875q-1.046875 0 -1.8125 0.671875q-0.75 0.65625 -0.75 2.515625l0 5.28125l-1.640625 0z" fill-rule="nonzero"/><path fill="#cfe2f3" d="m131.59055 59.2153l0 0c0 -2.1743927 1.7626953 -3.937088 3.937088 -3.937088l59.11795 0c1.0441895 0 2.0455933 0.41480255 2.7839508 1.1531487c0.7383423 0.7383461 1.1531372 1.7397575 1.1531372 2.7839394l0 15.747871c0 2.1743927 -1.7626953 3.937088 -3.937088 3.937088l-59.11795 0c-2.1743927 0 -3.937088 -1.7626953 -3.937088 -3.937088z" fill-rule="evenodd"/><path stroke="#000000" stroke-width="1.0" stroke-linejoin="round" stroke-linecap="butt" d="m131.59055 59.2153l0 0c0 -2.1743927 1.7626953 -3.937088 3.937088 -3.937088l59.11795 0c1.0441895 0 2.0455933 0.41480255 2.7839508 1.1531487c0.7383423 0.7383461 1.1531372 1.7397575 1.1531372 2.7839394l0 15.747871c0 2.1743927 -1.7626953 3.937088 -3.937088 3.937088l-59.11795 0c-2.1743927 0 -3.937088 -1.7626953 -3.937088 -3.937088z" fill-rule="evenodd"/><path fill="#000000" d="m151.17645 69.62486l1.015625 -0.09375q0.125 0.71875 0.484375 1.046875q0.375 0.3125 0.9375 0.3125q0.484375 0 0.84375 -0.21875q0.375 -0.234375 0.609375 -0.59375q0.234375 -0.375 0.390625 -1.0q0.15625 -0.640625 0.15625 -1.296875q0 -0.078125 0 -0.21875q-0.3125 0.5 -0.859375 0.828125q-0.546875 0.3125 -1.1875 0.3125q-1.078125 0 -1.8125 -0.765625q-0.734375 -0.78125 -0.734375 -2.046875q0 -1.3125 0.765625 -2.109375q0.78125 -0.796875 1.9375 -0.796875q0.828125 0 1.515625 0.453125q0.703125 0.453125 1.0625 1.296875q0.359375 0.828125 0.359375 2.40625q0 1.640625 -0.359375 2.625q-0.34375 0.96875 -1.0625 1.484375q-0.703125 0.5 -1.640625 0.5q-1.015625 0 -1.65625 -0.546875q-0.640625 -0.5625 -0.765625 -1.578125zm4.3125 -3.796875q0 -0.90625 -0.484375 -1.4375q-0.46875 -0.53125 -1.15625 -0.53125q-0.703125 0 -1.234375 0.578125q-0.515625 0.5625 -0.515625 1.484375q0 0.8125 0.5 1.328125q0.5 0.515625 1.21875 0.515625q0.734375 0 1.203125 -0.515625q0.46875 -0.515625 0.46875 -1.421875zm2.3613281 3.796875l1.015625 -0.09375q0.125 0.71875 0.484375 1.046875q0.375 0.3125 0.9375 0.3125q0.484375 0 0.84375 -0.21875q0.375 -0.234375 0.609375 -0.59375q0.234375 -0.375 0.390625 -1.0q0.15625 -0.640625 0.15625 -1.296875q0 -0.078125 0 -0.21875q-0.3125 0.5 -0.859375 0.828125q-0.546875 0.3125 -1.1875 0.3125q-1.078125 0 -1.8125 -0.765625q-0.734375 -0.78125 -0.734375 -2.046875q0 -1.3125 0.765625 -2.109375q0.78125 -0.796875 1.9375 -0.796875q0.828125 0 1.515625 0.453125q0.703125 0.453125 1.0625 1.296875q0.359375 0.828125 0.359375 2.40625q0 1.640625 -0.359375 2.625q-0.34375 0.96875 -1.0625 1.484375q-0.703125 0.5 -1.640625 0.5q-1.015625 0 -1.65625 -0.546875q-0.640625 -0.5625 -0.765625 -1.578125zm4.3125 -3.796875q0 -0.90625 -0.484375 -1.4375q-0.46875 -0.53125 -1.15625 -0.53125q-0.703125 0 -1.234375 0.578125q-0.515625 0.5625 -0.515625 1.484375q0 0.8125 0.5 1.328125q0.5 0.515625 1.21875 0.515625q0.734375 0 1.203125 -0.515625q0.46875 -0.515625 0.46875 -1.421875zm6.1484375 8.3125l0 -11.265625l0.90625 0l0 11.265625l-0.90625 0z" fill-rule="nonzero"/><path fill="#000000" d="m177.91864 66.78111q-0.09375 0.046875 -0.328125 0.1875l-0.84375 0.328125l0.84375 0.328125q0.234375 0.09375 0.328125 0.140625q0.09375 0.09375 0.09375 0.1875q0 0.09375 -0.046875 0.140625q-0.09375 0.09375 -0.1875 0.09375q-0.140625 0 -0.328125 -0.140625l-0.75 -0.65625l0.140625 0.984375q0.046875 0.140625 0.046875 0.234375q0 0.09375 -0.09375 0.1875q-0.046875 0.09375 -0.140625 0.09375q-0.140625 0 -0.1875 -0.09375q-0.046875 -0.09375 -0.046875 -0.1875q0 -0.09375 0 -0.234375l0.1875 -0.984375l-0.75 0.65625q-0.140625 0.140625 -0.328125 0.140625q-0.046875 0 -0.140625 -0.09375q-0.046875 -0.046875 -0.046875 -0.140625q0 -0.09375 0.046875 -0.1875q0.09375 -0.046875 0.375 -0.140625l0.796875 -0.328125l-0.796875 -0.328125q-0.28125 -0.140625 -0.375 -0.1875q-0.046875 -0.046875 -0.046875 -0.1875q0 -0.140625 0.046875 -0.140625q0.09375 -0.09375 0.140625 -0.09375q0.1875 0 0.328125 0.140625l0.75 0.703125l-0.140625 -1.03125q-0.046875 -0.140625 -0.046875 -0.234375q0 -0.140625 0.046875 -0.1875q0.09375 -0.046875 0.1875 -0.046875q0.140625 0 0.1875 0.046875q0.046875 0.046875 0.046875 0.1875q0 0.140625 0 0.234375l-0.1875 1.03125l0.75 -0.703125q0.1875 -0.140625 0.328125 -0.140625q0.09375 0 0.1875 0.09375q0.046875 0 0.046875 0.140625q0 0.140625 -0.09375 0.1875zm-1.265625 2.8125q0.9375 0 1.640625 -0.703125q0.65625 -0.65625 0.65625 -1.59375q0 -0.9375 -0.65625 -1.59375q-0.703125 -0.703125 -1.640625 -0.703125q-0.9375 0 -1.640625 0.703125q-0.65625 0.65625 -0.65625 1.59375q0 0.9375 0.65625 1.59375q0.703125 0.703125 1.640625 0.703125zm1.921875 -0.515625q-0.84375 0.84375 -1.921875 0.84375q-1.078125 0 -1.875 -0.796875q-0.75 -0.75 -0.75 -1.828125q0 -1.078125 0.703125 -1.78125q0.84375 -0.84375 1.921875 -0.84375q1.078125 0 1.875 0.796875q0.75 0.75 0.75 1.828125q0 1.078125 -0.703125 1.78125z" fill-rule="nonzero"/><path fill="#cfe2f3" d="m131.59055 103.33866l0 0c0 -2.1743927 1.7626953 -3.937088 3.937088 -3.937088l59.11795 0c1.0441895 0 2.0455933 0.41480255 2.7839508 1.1531448c0.7383423 0.7383499 1.1531372 1.7397614 1.1531372 2.7839432l0 15.747871c0 2.1743927 -1.7626953 3.937088 -3.937088 3.937088l-59.11795 0c-2.1743927 0 -3.937088 -1.7626953 -3.937088 -3.937088z" fill-rule="evenodd"/><path stroke="#000000" stroke-width="1.0" stroke-linejoin="round" stroke-linecap="butt" d="m131.59055 103.33866l0 0c0 -2.1743927 1.7626953 -3.937088 3.937088 -3.937088l59.11795 0c1.0441895 0 2.0455933 0.41480255 2.7839508 1.1531448c0.7383423 0.7383499 1.1531372 1.7397614 1.1531372 2.7839432l0 15.747871c0 2.1743927 -1.7626953 3.937088 -3.937088 3.937088l-59.11795 0c-2.1743927 0 -3.937088 -1.7626953 -3.937088 -3.937088z" fill-rule="evenodd"/><path fill="#000000" d="m151.65204 115.7326l-1.046875 0l0 -6.71875q-0.390625 0.359375 -1.015625 0.734375q-0.609375 0.359375 -1.09375 0.53125l0 -1.015625q0.875 -0.421875 1.53125 -1.0q0.671875 -0.59375 0.953125 -1.15625l0.671875 0l0 8.625zm2.8613281 -1.984375l1.015625 -0.09375q0.125 0.71875 0.484375 1.046875q0.375 0.3125 0.9375 0.3125q0.484375 0 0.84375 -0.21875q0.375 -0.234375 0.609375 -0.59375q0.234375 -0.375 0.390625 -1.0q0.15625 -0.640625 0.15625 -1.296875q0 -0.078125 0 -0.21875q-0.3125 0.5 -0.859375 0.828125q-0.546875 0.3125 -1.1875 0.3125q-1.078125 0 -1.8125 -0.765625q-0.734375 -0.78125 -0.734375 -2.046875q0 -1.3125 0.765625 -2.109375q0.78125 -0.796875 1.9375 -0.796875q0.828125 0 1.515625 0.453125q0.703125 0.453125 1.0625 1.296875q0.359375 0.828125 0.359375 2.40625q0 1.640625 -0.359375 2.625q-0.34375 0.96875 -1.0625 1.484375q-0.703125 0.5 -1.640625 0.5q-1.015625 0 -1.65625 -0.546875q-0.640625 -0.5625 -0.765625 -1.578125zm4.3125 -3.796875q0 -0.90625 -0.484375 -1.4375q-0.46875 -0.53125 -1.15625 -0.53125q-0.703125 0 -1.234375 0.578125q-0.515625 0.5625 -0.515625 1.484375q0 0.8125 0.5 1.328125q0.5 0.515625 1.21875 0.515625q0.734375 0 1.203125 -0.515625q0.46875 -0.515625 0.46875 -1.421875zm2.3613281 3.796875l1.015625 -0.09375q0.125 0.71875 0.484375 1.046875q0.375 0.3125 0.9375 0.3125q0.484375 0 0.84375 -0.21875q0.375 -0.234375 0.609375 -0.59375q0.234375 -0.375 0.390625 -1.0q0.15625 -0.640625 0.15625 -1.296875q0 -0.078125 0 -0.21875q-0.3125 0.5 -0.859375 0.828125q-0.546875 0.3125 -1.1875 0.3125q-1.078125 0 -1.8125 -0.765625q-0.734375 -0.78125 -0.734375 -2.046875q0 -1.3125 0.765625 -2.109375q0.78125 -0.796875 1.9375 -0.796875q0.828125 0 1.515625 0.453125q0.703125 0.453125 1.0625 1.296875q0.359375 0.828125 0.359375 2.40625q0 1.640625 -0.359375 2.625q-0.34375 0.96875 -1.0625 1.484375q-0.703125 0.5 -1.640625 0.5q-1.015625 0 -1.65625 -0.546875q-0.640625 -0.5625 -0.765625 -1.578125zm4.3125 -3.796875q0 -0.90625 -0.484375 -1.4375q-0.46875 -0.53125 -1.15625 -0.53125q-0.703125 0 -1.234375 0.578125q-0.515625 0.5625 -0.515625 1.484375q0 0.8125 0.5 1.328125q0.5 0.515625 1.21875 0.515625q0.734375 0 1.203125 -0.515625q0.46875 -0.515625 0.46875 -1.421875zm6.1484375 8.3125l0 -11.265625l0.90625 0l0 11.265625l-0.90625 0z" fill-rule="nonzero"/><path fill="#000000" d="m181.25555 110.90447q-0.09375 0.046875 -0.328125 0.1875l-0.84375 0.328125l0.84375 0.328125q0.234375 0.09375 0.328125 0.140625q0.09375 0.09375 0.09375 0.1875q0 0.09375 -0.046875 0.140625q-0.09375 0.09375 -0.1875 0.09375q-0.140625 0 -0.328125 -0.140625l-0.75 -0.65625l0.140625 0.984375q0.046875 0.140625 0.046875 0.234375q0 0.09375 -0.09375 0.1875q-0.046875 0.09375 -0.140625 0.09375q-0.140625 0 -0.1875 -0.09375q-0.046875 -0.09375 -0.046875 -0.1875q0 -0.09375 0 -0.234375l0.1875 -0.984375l-0.75 0.65625q-0.140625 0.140625 -0.328125 0.140625q-0.046875 0 -0.140625 -0.09375q-0.046875 -0.046875 -0.046875 -0.140625q0 -0.09375 0.046875 -0.1875q0.09375 -0.046875 0.375 -0.140625l0.796875 -0.328125l-0.796875 -0.328125q-0.28125 -0.140625 -0.375 -0.1875q-0.046875 -0.046875 -0.046875 -0.1875q0 -0.140625 0.046875 -0.140625q0.09375 -0.09375 0.140625 -0.09375q0.1875 0 0.328125 0.140625l0.75 0.703125l-0.140625 -1.03125q-0.046875 -0.140625 -0.046875 -0.234375q0 -0.140625 0.046875 -0.1875q0.09375 -0.046875 0.1875 -0.046875q0.140625 0 0.1875 0.046875q0.046875 0.046875 0.046875 0.1875q0 0.140625 0 0.234375l-0.1875 1.03125l0.75 -0.703125q0.1875 -0.140625 0.328125 -0.140625q0.09375 0 0.1875 0.09375q0.046875 0 0.046875 0.140625q0 0.140625 -0.09375 0.1875zm-1.265625 2.8125q0.9375 0 1.640625 -0.703125q0.65625 -0.65625 0.65625 -1.59375q0 -0.9375 -0.65625 -1.59375q-0.703125 -0.703125 -1.640625 -0.703125q-0.9375 0 -1.640625 0.703125q-0.65625 0.65625 -0.65625 1.59375q0 0.9375 0.65625 1.59375q0.703125 0.703125 1.640625 0.703125zm1.921875 -0.515625q-0.84375 0.84375 -1.921875 0.84375q-1.078125 0 -1.875 -0.796875q-0.75 -0.75 -0.75 -1.828125q0 -1.078125 0.703125 -1.78125q0.84375 -0.84375 1.921875 -0.84375q1.078125 0 1.875 0.796875q0.75 0.75 0.75 1.828125q0 1.078125 -0.703125 1.78125z" fill-rule="nonzero"/><path fill="#cfe2f3" d="m131.59055 165.58539l0 0c0 -2.174408 1.7626953 -3.937088 3.937088 -3.937088l59.11795 0c1.0441895 0 2.0455933 0.41479492 2.7839508 1.1531372c0.7383423 0.7383423 1.1531372 1.7397614 1.1531372 2.7839508l0 15.747864c0 2.1743927 -1.7626953 3.937088 -3.937088 3.937088l-59.11795 0c-2.1743927 0 -3.937088 -1.7626953 -3.937088 -3.937088z" fill-rule="evenodd"/><path stroke="#000000" stroke-width="1.0" stroke-linejoin="round" stroke-linecap="butt" d="m131.59055 165.58539l0 0c0 -2.174408 1.7626953 -3.937088 3.937088 -3.937088l59.11795 0c1.0441895 0 2.0455933 0.41479492 2.7839508 1.1531372c0.7383423 0.7383423 1.1531372 1.7397614 1.1531372 2.7839508l0 15.747864c0 2.1743927 -1.7626953 3.937088 -3.937088 3.937088l-59.11795 0c-2.1743927 0 -3.937088 -1.7626953 -3.937088 -3.937088z" fill-rule="evenodd"/><path fill="#000000" d="m153.23016 176.9637l0 1.015625l-5.6875 0q0 -0.375 0.125 -0.734375q0.21875 -0.578125 0.6875 -1.140625q0.484375 -0.5625 1.390625 -1.296875q1.40625 -1.15625 1.890625 -1.828125q0.5 -0.671875 0.5 -1.265625q0 -0.625 -0.453125 -1.046875q-0.453125 -0.4375 -1.171875 -0.4375q-0.765625 0 -1.21875 0.453125q-0.453125 0.453125 -0.46875 1.265625l-1.078125 -0.109375q0.109375 -1.21875 0.828125 -1.84375q0.734375 -0.640625 1.96875 -0.640625q1.234375 0 1.953125 0.6875q0.71875 0.6875 0.71875 1.703125q0 0.515625 -0.21875 1.015625q-0.203125 0.484375 -0.703125 1.046875q-0.484375 0.546875 -1.609375 1.5q-0.953125 0.796875 -1.234375 1.09375q-0.265625 0.28125 -0.4375 0.5625l4.21875 0zm1.2832031 -0.96875l1.015625 -0.09375q0.125 0.71875 0.484375 1.046875q0.375 0.3125 0.9375 0.3125q0.484375 0 0.84375 -0.21875q0.375 -0.234375 0.609375 -0.59375q0.234375 -0.375 0.390625 -1.0q0.15625 -0.640625 0.15625 -1.296875q0 -0.078125 0 -0.21875q-0.3125 0.5 -0.859375 0.828125q-0.546875 0.3125 -1.1875 0.3125q-1.078125 0 -1.8125 -0.765625q-0.734375 -0.78125 -0.734375 -2.046875q0 -1.3125 0.765625 -2.109375q0.78125 -0.796875 1.9375 -0.796875q0.828125 0 1.515625 0.453125q0.703125 0.453125 1.0625 1.296875q0.359375 0.828125 0.359375 2.40625q0 1.640625 -0.359375 2.625q-0.34375 0.96875 -1.0625 1.484375q-0.703125 0.5 -1.640625 0.5q-1.015625 0 -1.65625 -0.546875q-0.640625 -0.5625 -0.765625 -1.578125zm4.3125 -3.796875q0 -0.90625 -0.484375 -1.4375q-0.46875 -0.53125 -1.15625 -0.53125q-0.703125 0 -1.234375 0.578125q-0.515625 0.5625 -0.515625 1.484375q0 0.8125 0.5 1.328125q0.5 0.515625 1.21875 0.515625q0.734375 0 1.203125 -0.515625q0.46875 -0.515625 0.46875 -1.421875zm2.3613281 3.796875l1.015625 -0.09375q0.125 0.71875 0.484375 1.046875q0.375 0.3125 0.9375 0.3125q0.484375 0 0.84375 -0.21875q0.375 -0.234375 0.609375 -0.59375q0.234375 -0.375 0.390625 -1.0q0.15625 -0.640625 0.15625 -1.296875q0 -0.078125 0 -0.21875q-0.3125 0.5 -0.859375 0.828125q-0.546875 0.3125 -1.1875 0.3125q-1.078125 0 -1.8125 -0.765625q-0.734375 -0.78125 -0.734375 -2.046875q0 -1.3125 0.765625 -2.109375q0.78125 -0.796875 1.9375 -0.796875q0.828125 0 1.515625 0.453125q0.703125 0.453125 1.0625 1.296875q0.359375 0.828125 0.359375 2.40625q0 1.640625 -0.359375 2.625q-0.34375 0.96875 -1.0625 1.484375q-0.703125 0.5 -1.640625 0.5q-1.015625 0 -1.65625 -0.546875q-0.640625 -0.5625 -0.765625 -1.578125zm4.3125 -3.796875q0 -0.90625 -0.484375 -1.4375q-0.46875 -0.53125 -1.15625 -0.53125q-0.703125 0 -1.234375 0.578125q-0.515625 0.5625 -0.515625 1.484375q0 0.8125 0.5 1.328125q0.5 0.515625 1.21875 0.515625q0.734375 0 1.203125 -0.515625q0.46875 -0.515625 0.46875 -1.421875zm6.1484375 8.3125l0 -11.265625l0.90625 0l0 11.265625l-0.90625 0z" fill-rule="nonzero"/><path fill="#000000" d="m181.25555 173.1512q-0.09375 0.046875 -0.328125 0.1875l-0.84375 0.328125l0.84375 0.328125q0.234375 0.09375 0.328125 0.140625q0.09375 0.09375 0.09375 0.1875q0 0.09375 -0.046875 0.140625q-0.09375 0.09375 -0.1875 0.09375q-0.140625 0 -0.328125 -0.140625l-0.75 -0.65625l0.140625 0.984375q0.046875 0.140625 0.046875 0.234375q0 0.09375 -0.09375 0.1875q-0.046875 0.09375 -0.140625 0.09375q-0.140625 0 -0.1875 -0.09375q-0.046875 -0.09375 -0.046875 -0.1875q0 -0.09375 0 -0.234375l0.1875 -0.984375l-0.75 0.65625q-0.140625 0.140625 -0.328125 0.140625q-0.046875 0 -0.140625 -0.09375q-0.046875 -0.046875 -0.046875 -0.140625q0 -0.09375 0.046875 -0.1875q0.09375 -0.046875 0.375 -0.140625l0.796875 -0.328125l-0.796875 -0.328125q-0.28125 -0.140625 -0.375 -0.1875q-0.046875 -0.046875 -0.046875 -0.1875q0 -0.140625 0.046875 -0.140625q0.09375 -0.09375 0.140625 -0.09375q0.1875 0 0.328125 0.140625l0.75 0.703125l-0.140625 -1.03125q-0.046875 -0.140625 -0.046875 -0.234375q0 -0.140625 0.046875 -0.1875q0.09375 -0.046875 0.1875 -0.046875q0.140625 0 0.1875 0.046875q0.046875 0.046875 0.046875 0.1875q0 0.140625 0 0.234375l-0.1875 1.03125l0.75 -0.703125q0.1875 -0.140625 0.328125 -0.140625q0.09375 0 0.1875 0.09375q0.046875 0 0.046875 0.140625q0 0.140625 -0.09375 0.1875zm-1.265625 2.8125q0.9375 0 1.640625 -0.703125q0.65625 -0.65625 0.65625 -1.59375q0 -0.9375 -0.65625 -1.59375q-0.703125 -0.703125 -1.640625 -0.703125q-0.9375 0 -1.640625 0.703125q-0.65625 0.65625 -0.65625 1.59375q0 0.9375 0.65625 1.59375q0.703125 0.703125 1.640625 0.703125zm1.921875 -0.515625q-0.84375 0.84375 -1.921875 0.84375q-1.078125 0 -1.875 -0.796875q-0.75 -0.75 -0.75 -1.828125q0 -1.078125 0.703125 -1.78125q0.84375 -0.84375 1.921875 -0.84375q1.078125 0 1.875 0.796875q0.75 0.75 0.75 1.828125q0 1.078125 -0.703125 1.78125z" fill-rule="nonzero"/><path fill="#cfe2f3" d="m231.08923 59.2153l0 0c0 -2.1743927 1.7626953 -3.937088 3.937088 -3.937088l59.117966 0c1.0441589 0 2.0455933 0.41480255 2.7839355 1.1531487c0.7383423 0.7383461 1.1531372 1.7397575 1.1531372 2.7839394l0 15.747871c0 2.1743927 -1.7626953 3.937088 -3.9370728 3.937088l-59.117966 0c-2.1743927 0 -3.937088 -1.7626953 -3.937088 -3.937088z" fill-rule="evenodd"/><path stroke="#000000" stroke-width="1.0" stroke-linejoin="round" stroke-linecap="butt" d="m231.08923 59.2153l0 0c0 -2.1743927 1.7626953 -3.937088 3.937088 -3.937088l59.117966 0c1.0441589 0 2.0455933 0.41480255 2.7839355 1.1531487c0.7383423 0.7383461 1.1531372 1.7397575 1.1531372 2.7839394l0 15.747871c0 2.1743927 -1.7626953 3.937088 -3.9370728 3.937088l-59.117966 0c-2.1743927 0 -3.937088 -1.7626953 -3.937088 -3.937088z" fill-rule="evenodd"/><path fill="#000000" d="m251.15366 71.60924l-1.046875 0l0 -6.71875q-0.390625 0.359375 -1.015625 0.734375q-0.609375 0.359375 -1.09375 0.53125l0 -1.015625q0.875 -0.421875 1.53125 -1.0q0.671875 -0.59375 0.953125 -1.15625l0.671875 0l0 8.625zm2.8613281 -1.984375l1.015625 -0.09375q0.125 0.71875 0.484375 1.046875q0.375 0.3125 0.9375 0.3125q0.484375 0 0.84375 -0.21875q0.375 -0.234375 0.609375 -0.59375q0.234375 -0.375 0.390625 -1.0q0.15625 -0.640625 0.15625 -1.296875q0 -0.078125 0 -0.21875q-0.3125 0.5 -0.859375 0.828125q-0.546875 0.3125 -1.1875 0.3125q-1.078125 0 -1.8125 -0.765625q-0.734375 -0.78125 -0.734375 -2.046875q0 -1.3125 0.765625 -2.109375q0.78125 -0.796875 1.9375 -0.796875q0.828125 0 1.515625 0.453125q0.703125 0.453125 1.0625 1.296875q0.359375 0.828125 0.359375 2.40625q0 1.640625 -0.359375 2.625q-0.34375 0.96875 -1.0625 1.484375q-0.703125 0.5 -1.640625 0.5q-1.015625 0 -1.65625 -0.546875q-0.640625 -0.5625 -0.765625 -1.578125zm4.3125 -3.796875q0 -0.90625 -0.484375 -1.4375q-0.46875 -0.53125 -1.15625 -0.53125q-0.703125 0 -1.234375 0.578125q-0.515625 0.5625 -0.515625 1.484375q0 0.8125 0.5 1.328125q0.5 0.515625 1.21875 0.515625q0.734375 0 1.203125 -0.515625q0.46875 -0.515625 0.46875 -1.421875zm12.816406 8.3125l0 -11.265625l0.90625 0l0 11.265625l-0.90625 0z" fill-rule="nonzero"/><path fill="#000000" d="m280.7513 66.78111q-0.09375 0.046875 -0.328125 0.1875l-0.84375 0.328125l0.84375 0.328125q0.234375 0.09375 0.328125 0.140625q0.09375 0.09375 0.09375 0.1875q0 0.09375 -0.046875 0.140625q-0.09375 0.09375 -0.1875 0.09375q-0.140625 0 -0.328125 -0.140625l-0.75 -0.65625l0.140625 0.984375q0.046875 0.140625 0.046875 0.234375q0 0.09375 -0.09375 0.1875q-0.046875 0.09375 -0.140625 0.09375q-0.140625 0 -0.1875 -0.09375q-0.046875 -0.09375 -0.046875 -0.1875q0 -0.09375 0 -0.234375l0.1875 -0.984375l-0.75 0.65625q-0.140625 0.140625 -0.328125 0.140625q-0.046875 0 -0.140625 -0.09375q-0.046875 -0.046875 -0.046875 -0.140625q0 -0.09375 0.046875 -0.1875q0.09375 -0.046875 0.375 -0.140625l0.796875 -0.328125l-0.796875 -0.328125q-0.28125 -0.140625 -0.375 -0.1875q-0.046875 -0.046875 -0.046875 -0.1875q0 -0.140625 0.046875 -0.140625q0.09375 -0.09375 0.140625 -0.09375q0.1875 0 0.328125 0.140625l0.75 0.703125l-0.140625 -1.03125q-0.046875 -0.140625 -0.046875 -0.234375q0 -0.140625 0.046875 -0.1875q0.09375 -0.046875 0.1875 -0.046875q0.140625 0 0.1875 0.046875q0.046875 0.046875 0.046875 0.1875q0 0.140625 0 0.234375l-0.1875 1.03125l0.75 -0.703125q0.1875 -0.140625 0.328125 -0.140625q0.09375 0 0.1875 0.09375q0.046875 0 0.046875 0.140625q0 0.140625 -0.09375 0.1875zm-1.265625 2.8125q0.9375 0 1.640625 -0.703125q0.65625 -0.65625 0.65625 -1.59375q0 -0.9375 -0.65625 -1.59375q-0.703125 -0.703125 -1.640625 -0.703125q-0.9375 0 -1.640625 0.703125q-0.65625 0.65625 -0.65625 1.59375q0 0.9375 0.65625 1.59375q0.703125 0.703125 1.640625 0.703125zm1.921875 -0.515625q-0.84375 0.84375 -1.921875 0.84375q-1.078125 0 -1.875 -0.796875q-0.75 -0.75 -0.75 -1.828125q0 -1.078125 0.703125 -1.78125q0.84375 -0.84375 1.921875 -0.84375q1.078125 0 1.875 0.796875q0.75 0.75 0.75 1.828125q0 1.078125 -0.703125 1.78125z" fill-rule="nonzero"/><path fill="#cfe2f3" d="m231.08923 97.33866l0 0c0 -2.1743927 1.7626953 -3.937088 3.937088 -3.937088l59.117966 0c1.0441589 0 2.0455933 0.41480255 2.7839355 1.1531448c0.7383423 0.7383499 1.1531372 1.7397614 1.1531372 2.7839432l0 15.747871c0 2.1743927 -1.7626953 3.937088 -3.9370728 3.937088l-59.117966 0c-2.1743927 0 -3.937088 -1.7626953 -3.937088 -3.937088z" fill-rule="evenodd"/><path stroke="#000000" stroke-width="1.0" stroke-linejoin="round" stroke-linecap="butt" d="m231.08923 97.33866l0 0c0 -2.1743927 1.7626953 -3.937088 3.937088 -3.937088l59.117966 0c1.0441589 0 2.0455933 0.41480255 2.7839355 1.1531448c0.7383423 0.7383499 1.1531372 1.7397614 1.1531372 2.7839432l0 15.747871c0 2.1743927 -1.7626953 3.937088 -3.9370728 3.937088l-59.117966 0c-2.1743927 0 -3.937088 -1.7626953 -3.937088 -3.937088z" fill-rule="evenodd"/><path fill="#000000" d="m247.34116 107.74822l1.015625 -0.09375q0.125 0.71875 0.484375 1.046875q0.375 0.3125 0.9375 0.3125q0.484375 0 0.84375 -0.21875q0.375 -0.234375 0.609375 -0.59375q0.234375 -0.375 0.390625 -1.0q0.15625 -0.640625 0.15625 -1.296875q0 -0.078125 0 -0.21875q-0.3125 0.5 -0.859375 0.828125q-0.546875 0.3125 -1.1875 0.3125q-1.078125 0 -1.8125 -0.765625q-0.734375 -0.78125 -0.734375 -2.046875q0 -1.3125 0.765625 -2.109375q0.78125 -0.796875 1.9375 -0.796875q0.828125 0 1.515625 0.453125q0.703125 0.453125 1.0625 1.296875q0.359375 0.828125 0.359375 2.40625q0 1.640625 -0.359375 2.625q-0.34375 0.96875 -1.0625 1.484375q-0.703125 0.5 -1.640625 0.5q-1.015625 0 -1.65625 -0.546875q-0.640625 -0.5625 -0.765625 -1.578125zm4.3125 -3.796875q0 -0.90625 -0.484375 -1.4375q-0.46875 -0.53125 -1.15625 -0.53125q-0.703125 0 -1.234375 0.578125q-0.515625 0.5625 -0.515625 1.484375q0 0.8125 0.5 1.328125q0.5 0.515625 1.21875 0.515625q0.734375 0 1.203125 -0.515625q0.46875 -0.515625 0.46875 -1.421875zm2.3613281 3.796875l1.015625 -0.09375q0.125 0.71875 0.484375 1.046875q0.375 0.3125 0.9375 0.3125q0.484375 0 0.84375 -0.21875q0.375 -0.234375 0.609375 -0.59375q0.234375 -0.375 0.390625 -1.0q0.15625 -0.640625 0.15625 -1.296875q0 -0.078125 0 -0.21875q-0.3125 0.5 -0.859375 0.828125q-0.546875 0.3125 -1.1875 0.3125q-1.078125 0 -1.8125 -0.765625q-0.734375 -0.78125 -0.734375 -2.046875q0 -1.3125 0.765625 -2.109375q0.78125 -0.796875 1.9375 -0.796875q0.828125 0 1.515625 0.453125q0.703125 0.453125 1.0625 1.296875q0.359375 0.828125 0.359375 2.40625q0 1.640625 -0.359375 2.625q-0.34375 0.96875 -1.0625 1.484375q-0.703125 0.5 -1.640625 0.5q-1.015625 0 -1.65625 -0.546875q-0.640625 -0.5625 -0.765625 -1.578125zm4.3125 -3.796875q0 -0.90625 -0.484375 -1.4375q-0.46875 -0.53125 -1.15625 -0.53125q-0.703125 0 -1.234375 0.578125q-0.515625 0.5625 -0.515625 1.484375q0 0.8125 0.5 1.328125q0.5 0.515625 1.21875 0.515625q0.734375 0 1.203125 -0.515625q0.46875 -0.515625 0.46875 -1.421875zm12.816406 8.3125l0 -11.265625l0.90625 0l0 11.265625l-0.90625 0z" fill-rule="nonzero"/><path fill="#000000" d="m280.7513 104.90447q-0.09375 0.046875 -0.328125 0.1875l-0.84375 0.328125l0.84375 0.328125q0.234375 0.09375 0.328125 0.140625q0.09375 0.09375 0.09375 0.1875q0 0.09375 -0.046875 0.140625q-0.09375 0.09375 -0.1875 0.09375q-0.140625 0 -0.328125 -0.140625l-0.75 -0.65625l0.140625 0.984375q0.046875 0.140625 0.046875 0.234375q0 0.09375 -0.09375 0.1875q-0.046875 0.09375 -0.140625 0.09375q-0.140625 0 -0.1875 -0.09375q-0.046875 -0.09375 -0.046875 -0.1875q0 -0.09375 0 -0.234375l0.1875 -0.984375l-0.75 0.65625q-0.140625 0.140625 -0.328125 0.140625q-0.046875 0 -0.140625 -0.09375q-0.046875 -0.046875 -0.046875 -0.140625q0 -0.09375 0.046875 -0.1875q0.09375 -0.046875 0.375 -0.140625l0.796875 -0.328125l-0.796875 -0.328125q-0.28125 -0.140625 -0.375 -0.1875q-0.046875 -0.046875 -0.046875 -0.1875q0 -0.140625 0.046875 -0.140625q0.09375 -0.09375 0.140625 -0.09375q0.1875 0 0.328125 0.140625l0.75 0.703125l-0.140625 -1.03125q-0.046875 -0.140625 -0.046875 -0.234375q0 -0.140625 0.046875 -0.1875q0.09375 -0.046875 0.1875 -0.046875q0.140625 0 0.1875 0.046875q0.046875 0.046875 0.046875 0.1875q0 0.140625 0 0.234375l-0.1875 1.03125l0.75 -0.703125q0.1875 -0.140625 0.328125 -0.140625q0.09375 0 0.1875 0.09375q0.046875 0 0.046875 0.140625q0 0.140625 -0.09375 0.1875zm-1.265625 2.8125q0.9375 0 1.640625 -0.703125q0.65625 -0.65625 0.65625 -1.59375q0 -0.9375 -0.65625 -1.59375q-0.703125 -0.703125 -1.640625 -0.703125q-0.9375 0 -1.640625 0.703125q-0.65625 0.65625 -0.65625 1.59375q0 0.9375 0.65625 1.59375q0.703125 0.703125 1.640625 0.703125zm1.921875 -0.515625q-0.84375 0.84375 -1.921875 0.84375q-1.078125 0 -1.875 -0.796875q-0.75 -0.75 -0.75 -1.828125q0 -1.078125 0.703125 -1.78125q0.84375 -0.84375 1.921875 -0.84375q1.078125 0 1.875 0.796875q0.75 0.75 0.75 1.828125q0 1.078125 -0.703125 1.78125z" fill-rule="nonzero"/><path fill="#cfe2f3" d="m231.08923 35.593254l0 0c0 -2.1743927 1.7626953 -3.937086 3.937088 -3.937086l59.117966 0c1.0441589 0 2.0455933 0.41480064 2.7839355 1.1531467c0.7383423 0.7383461 1.1531372 1.7397614 1.1531372 2.7839394l0 15.747875c0 2.1743927 -1.7626953 3.9370842 -3.9370728 3.9370842l-59.117966 0c-2.1743927 0 -3.937088 -1.7626915 -3.937088 -3.9370842z" fill-rule="evenodd"/><path stroke="#000000" stroke-width="1.0" stroke-linejoin="round" stroke-linecap="butt" d="m231.08923 35.593254l0 0c0 -2.1743927 1.7626953 -3.937086 3.937088 -3.937086l59.117966 0c1.0441589 0 2.0455933 0.41480064 2.7839355 1.1531467c0.7383423 0.7383461 1.1531372 1.7397614 1.1531372 2.7839394l0 15.747875c0 2.1743927 -1.7626953 3.9370842 -3.9370728 3.9370842l-59.117966 0c-2.1743927 0 -3.937088 -1.7626915 -3.937088 -3.9370842z" fill-rule="evenodd"/><path fill="#000000" d="m247.34409 46.002815l1.015625 -0.09375q0.125 0.71875 0.484375 1.046875q0.375 0.3125 0.9375 0.3125q0.484375 0 0.84375 -0.21875q0.375 -0.234375 0.609375 -0.59375q0.234375 -0.375 0.390625 -1.0q0.15625 -0.640625 0.15625 -1.296875q0 -0.078125 0 -0.21875q-0.3125 0.5 -0.859375 0.828125q-0.546875 0.3125 -1.1875 0.3125q-1.078125 0 -1.8125 -0.765625q-0.734375 -0.78125 -0.734375 -2.046875q0 -1.3125 0.765625 -2.109375q0.78125 -0.796875 1.9375 -0.796875q0.828125 0 1.515625 0.453125q0.703125 0.453125 1.0625 1.296875q0.359375 0.828125 0.359375 2.40625q0 1.640625 -0.359375 2.625q-0.34375 0.96875 -1.0625 1.484375q-0.703125 0.5 -1.640625 0.5q-1.015625 0 -1.65625 -0.546875q-0.640625 -0.5625 -0.765625 -1.578125zm4.3125 -3.796875q0 -0.90625 -0.484375 -1.4375q-0.46875 -0.53125 -1.15625 -0.53125q-0.703125 0 -1.234375 0.578125q-0.515625 0.5625 -0.515625 1.484375q0 0.8125 0.5 1.328125q0.5 0.515625 1.21875 0.515625q0.734375 0 1.203125 -0.515625q0.46875 -0.515625 0.46875 -1.421875zm19.484375 8.3125l0 -11.265625l0.90625 0l0 11.265625l-0.90625 0z" fill-rule="nonzero"/><path fill="#000000" d="m280.74838 43.159065q-0.09375 0.046875 -0.328125 0.1875l-0.84375 0.328125l0.84375 0.328125q0.234375 0.09375 0.328125 0.140625q0.09375 0.09375 0.09375 0.1875q0 0.09375 -0.046875 0.140625q-0.09375 0.09375 -0.1875 0.09375q-0.140625 0 -0.328125 -0.140625l-0.75 -0.65625l0.140625 0.984375q0.046875 0.140625 0.046875 0.234375q0 0.09375 -0.09375 0.1875q-0.046875 0.09375 -0.140625 0.09375q-0.140625 0 -0.1875 -0.09375q-0.046875 -0.09375 -0.046875 -0.1875q0 -0.09375 0 -0.234375l0.1875 -0.984375l-0.75 0.65625q-0.140625 0.140625 -0.328125 0.140625q-0.046875 0 -0.140625 -0.09375q-0.046875 -0.046875 -0.046875 -0.140625q0 -0.09375 0.046875 -0.1875q0.09375 -0.046875 0.375 -0.140625l0.796875 -0.328125l-0.796875 -0.328125q-0.28125 -0.140625 -0.375 -0.1875q-0.046875 -0.046875 -0.046875 -0.1875q0 -0.140625 0.046875 -0.140625q0.09375 -0.09375 0.140625 -0.09375q0.1875 0 0.328125 0.140625l0.75 0.703125l-0.140625 -1.03125q-0.046875 -0.140625 -0.046875 -0.234375q0 -0.140625 0.046875 -0.1875q0.09375 -0.046875 0.1875 -0.046875q0.140625 0 0.1875 0.046875q0.046875 0.046875 0.046875 0.1875q0 0.140625 0 0.234375l-0.1875 1.03125l0.75 -0.703125q0.1875 -0.140625 0.328125 -0.140625q0.09375 0 0.1875 0.09375q0.046875 0 0.046875 0.140625q0 0.140625 -0.09375 0.1875zm-1.265625 2.8125q0.9375 0 1.640625 -0.703125q0.65625 -0.65625 0.65625 -1.59375q0 -0.9375 -0.65625 -1.59375q-0.703125 -0.703125 -1.640625 -0.703125q-0.9375 0 -1.640625 0.703125q-0.65625 0.65625 -0.65625 1.59375q0 0.9375 0.65625 1.59375q0.703125 0.703125 1.640625 0.703125zm1.921875 -0.515625q-0.84375 0.84375 -1.921875 0.84375q-1.078125 0 -1.875 -0.796875q-0.75 -0.75 -0.75 -1.828125q0 -1.078125 0.703125 -1.78125q0.84375 -0.84375 1.921875 -0.84375q1.078125 0 1.875 0.796875q0.75 0.75 0.75 1.828125q0 1.078125 -0.703125 1.78125z" fill-rule="nonzero"/><path fill="#cfe2f3" d="m231.08923 144.58275l0 0c0 -2.1743927 1.7626953 -3.9370728 3.937088 -3.9370728l59.117966 0c1.0441589 0 2.0455933 0.41479492 2.7839355 1.1531372c0.7383423 0.7383423 1.1531372 1.7397614 1.1531372 2.7839355l0 15.747879c0 2.1743927 -1.7626953 3.937088 -3.9370728 3.937088l-59.117966 0c-2.1743927 0 -3.937088 -1.7626953 -3.937088 -3.937088z" fill-rule="evenodd"/><path stroke="#000000" stroke-width="1.0" stroke-linejoin="round" stroke-linecap="butt" d="m231.08923 144.58275l0 0c0 -2.1743927 1.7626953 -3.9370728 3.937088 -3.9370728l59.117966 0c1.0441589 0 2.0455933 0.41479492 2.7839355 1.1531372c0.7383423 0.7383423 1.1531372 1.7397614 1.1531372 2.7839355l0 15.747879c0 2.1743927 -1.7626953 3.937088 -3.9370728 3.937088l-59.117966 0c-2.1743927 0 -3.937088 -1.7626953 -3.937088 -3.937088z" fill-rule="evenodd"/><path fill="#000000" d="m251.59604 156.9767l-1.046875 0l0 -6.71875q-0.390625 0.359375 -1.015625 0.734375q-0.609375 0.359375 -1.09375 0.53125l0 -1.015625q0.875 -0.421875 1.53125 -1.0q0.671875 -0.59375 0.953125 -1.15625l0.671875 0l0 8.625zm5.783203 0l-1.046875 0l0 -6.71875q-0.390625 0.359375 -1.015625 0.734375q-0.609375 0.359375 -1.09375 0.53125l0 -1.015625q0.875 -0.421875 1.53125 -1.0q0.671875 -0.59375 0.953125 -1.15625l0.671875 0l0 8.625zm2.8613281 -1.984375l1.015625 -0.09375q0.125 0.71875 0.484375 1.046875q0.375 0.3125 0.9375 0.3125q0.484375 0 0.84375 -0.21875q0.375 -0.234375 0.609375 -0.59375q0.234375 -0.375 0.390625 -1.0q0.15625 -0.640625 0.15625 -1.296875q0 -0.078125 0 -0.21875q-0.3125 0.5 -0.859375 0.828125q-0.546875 0.3125 -1.1875 0.3125q-1.078125 0 -1.8125 -0.765625q-0.734375 -0.78125 -0.734375 -2.046875q0 -1.3125 0.765625 -2.109375q0.78125 -0.796875 1.9375 -0.796875q0.828125 0 1.515625 0.453125q0.703125 0.453125 1.0625 1.296875q0.359375 0.828125 0.359375 2.40625q0 1.640625 -0.359375 2.625q-0.34375 0.96875 -1.0625 1.484375q-0.703125 0.5 -1.640625 0.5q-1.015625 0 -1.65625 -0.546875q-0.640625 -0.5625 -0.765625 -1.578125zm4.3125 -3.796875q0 -0.90625 -0.484375 -1.4375q-0.46875 -0.53125 -1.15625 -0.53125q-0.703125 0 -1.234375 0.578125q-0.515625 0.5625 -0.515625 1.484375q0 0.8125 0.5 1.328125q0.5 0.515625 1.21875 0.515625q0.734375 0 1.203125 -0.515625q0.46875 -0.515625 0.46875 -1.421875zm6.1484375 8.3125l0 -11.265625l0.90625 0l0 11.265625l-0.90625 0z" fill-rule="nonzero"/><path fill="#000000" d="m280.30893 152.14857q-0.09375 0.046875 -0.328125 0.1875l-0.84375 0.328125l0.84375 0.328125q0.234375 0.09375 0.328125 0.140625q0.09375 0.09375 0.09375 0.1875q0 0.09375 -0.046875 0.140625q-0.09375 0.09375 -0.1875 0.09375q-0.140625 0 -0.328125 -0.140625l-0.75 -0.65625l0.140625 0.984375q0.046875 0.140625 0.046875 0.234375q0 0.09375 -0.09375 0.1875q-0.046875 0.09375 -0.140625 0.09375q-0.140625 0 -0.1875 -0.09375q-0.046875 -0.09375 -0.046875 -0.1875q0 -0.09375 0 -0.234375l0.1875 -0.984375l-0.75 0.65625q-0.140625 0.140625 -0.328125 0.140625q-0.046875 0 -0.140625 -0.09375q-0.046875 -0.046875 -0.046875 -0.140625q0 -0.09375 0.046875 -0.1875q0.09375 -0.046875 0.375 -0.140625l0.796875 -0.328125l-0.796875 -0.328125q-0.28125 -0.140625 -0.375 -0.1875q-0.046875 -0.046875 -0.046875 -0.1875q0 -0.140625 0.046875 -0.140625q0.09375 -0.09375 0.140625 -0.09375q0.1875 0 0.328125 0.140625l0.75 0.703125l-0.140625 -1.03125q-0.046875 -0.140625 -0.046875 -0.234375q0 -0.140625 0.046875 -0.1875q0.09375 -0.046875 0.1875 -0.046875q0.140625 0 0.1875 0.046875q0.046875 0.046875 0.046875 0.1875q0 0.140625 0 0.234375l-0.1875 1.03125l0.75 -0.703125q0.1875 -0.140625 0.328125 -0.140625q0.09375 0 0.1875 0.09375q0.046875 0 0.046875 0.140625q0 0.140625 -0.09375 0.1875zm-1.265625 2.8125q0.9375 0 1.640625 -0.703125q0.65625 -0.65625 0.65625 -1.59375q0 -0.9375 -0.65625 -1.59375q-0.703125 -0.703125 -1.640625 -0.703125q-0.9375 0 -1.640625 0.703125q-0.65625 0.65625 -0.65625 1.59375q0 0.9375 0.65625 1.59375q0.703125 0.703125 1.640625 0.703125zm1.921875 -0.515625q-0.84375 0.84375 -1.921875 0.84375q-1.078125 0 -1.875 -0.796875q-0.75 -0.75 -0.75 -1.828125q0 -1.078125 0.703125 -1.78125q0.84375 -0.84375 1.921875 -0.84375q1.078125 0 1.875 0.796875q0.75 0.75 0.75 1.828125q0 1.078125 -0.703125 1.78125z" fill-rule="nonzero"/><path fill="#cfe2f3" d="m327.8714 118.33604l0 0c0 -2.1743927 1.7626953 -3.937088 3.9370728 -3.937088l56.125824 0c1.0441895 0 2.0455933 0.41480255 2.7839355 1.1531448c0.7383728 0.7383499 1.1531677 1.7397614 1.1531677 2.7839432l0 15.747871c0 2.1743927 -1.7626953 3.937088 -3.9371033 3.937088l-56.125824 0c-2.1743774 0 -3.9370728 -1.7626953 -3.9370728 -3.937088z" fill-rule="evenodd"/><path stroke="#000000" stroke-width="1.0" stroke-linejoin="round" stroke-linecap="butt" d="m327.8714 118.33604l0 0c0 -2.1743927 1.7626953 -3.937088 3.9370728 -3.937088l56.125824 0c1.0441895 0 2.0455933 0.41480255 2.7839355 1.1531448c0.7383728 0.7383499 1.1531677 1.7397614 1.1531677 2.7839432l0 15.747871c0 2.1743927 -1.7626953 3.937088 -3.9371033 3.937088l-56.125824 0c-2.1743774 0 -3.9370728 -1.7626953 -3.9370728 -3.937088z" fill-rule="evenodd"/><path fill="#000000" d="m346.43683 130.72998l-1.046875 0l0 -6.7187576q-0.390625 0.359375 -1.015625 0.734375q-0.609375 0.359375 -1.09375 0.53125l0 -1.015625q0.875 -0.421875 1.53125 -1.0q0.671875 -0.59375 0.953125 -1.15625l0.671875 0l0 8.625008zm2.7050781 -4.2343826q0 -1.53125 0.3125 -2.453125q0.3125 -0.9375 0.921875 -1.4375q0.625 -0.5 1.5625 -0.5q0.6875 0 1.203125 0.28125q0.53125 0.28125 0.875 0.8125q0.34375 0.515625 0.53125 1.265625q0.1875 0.75 0.1875 2.03125q0 1.5156326 -0.3125 2.4375076q-0.296875 0.921875 -0.921875 1.4375q-0.609375 0.5 -1.5625 0.5q-1.234375 0 -1.953125 -0.890625q-0.84375 -1.0625 -0.84375 -3.4843826zm1.078125 0q0 2.1093826 0.5 2.8125076q0.5 0.703125 1.21875 0.703125q0.734375 0 1.21875 -0.703125q0.5 -0.703125 0.5 -2.8125076q0 -2.125 -0.5 -2.8125q-0.484375 -0.703125 -1.234375 -0.703125q-0.71875 0 -1.15625 0.609375q-0.546875 0.78125 -0.546875 2.90625zm5.595703 1.9687576l1.0625 -0.140625q0.171875 0.890625 0.609375 1.296875q0.4375 0.390625 1.0625 0.390625q0.75 0 1.265625 -0.515625q0.515625 -0.515625 0.515625 -1.28125q0 -0.7187576 -0.484375 -1.1875076q-0.46875 -0.484375 -1.203125 -0.484375q-0.296875 0 -0.75 0.125l0.125 -0.9375q0.109375 0.015625 0.171875 0.015625q0.671875 0 1.203125 -0.34375q0.546875 -0.359375 0.546875 -1.09375q0 -0.578125 -0.390625 -0.953125q-0.390625 -0.390625 -1.015625 -0.390625q-0.609375 0 -1.03125 0.390625q-0.40625 0.390625 -0.515625 1.15625l-1.0625 -0.1875q0.1875 -1.046875 0.875 -1.625q0.6875 -0.59375 1.703125 -0.59375q0.703125 0 1.296875 0.3125q0.59375 0.296875 0.90625 0.8125q0.3125 0.515625 0.3125 1.109375q0 0.546875 -0.296875 1.015625q-0.296875 0.453125 -0.875 0.71875q0.75 0.171875 1.171875 0.734375q0.421875 0.546875 0.421875 1.3906326q0 1.125 -0.828125 1.90625q-0.8125 0.78125 -2.0625 0.78125q-1.125 0 -1.875 -0.671875q-0.75 -0.6875 -0.859375 -1.75zm10.6171875 4.796875l0 -11.265633l0.90625 0l0 11.265633l-0.90625 0z" fill-rule="nonzero"/><path fill="#000000" d="m376.04034 125.90185q-0.09375 0.046875 -0.328125 0.1875l-0.84375 0.328125l0.84375 0.328125q0.234375 0.09375 0.328125 0.140625q0.09375 0.09375 0.09375 0.1875q0 0.09375 -0.046875 0.140625q-0.09375 0.09375 -0.1875 0.09375q-0.140625 0 -0.328125 -0.140625l-0.75 -0.65625l0.140625 0.984375q0.046875 0.140625 0.046875 0.234375q0 0.09375 -0.09375 0.1875q-0.046875 0.09375763 -0.140625 0.09375763q-0.140625 0 -0.1875 -0.09375763q-0.046875 -0.09375 -0.046875 -0.1875q0 -0.09375 0 -0.234375l0.1875 -0.984375l-0.75 0.65625q-0.140625 0.140625 -0.328125 0.140625q-0.046875 0 -0.140625 -0.09375q-0.046875 -0.046875 -0.046875 -0.140625q0 -0.09375 0.046875 -0.1875q0.09375 -0.046875 0.375 -0.140625l0.796875 -0.328125l-0.796875 -0.328125q-0.28125 -0.140625 -0.375 -0.1875q-0.046875 -0.046875 -0.046875 -0.1875q0 -0.140625 0.046875 -0.140625q0.09375 -0.09375 0.140625 -0.09375q0.1875 0 0.328125 0.140625l0.75 0.703125l-0.140625 -1.03125q-0.046875 -0.140625 -0.046875 -0.234375q0 -0.140625 0.046875 -0.1875q0.09375 -0.046875 0.1875 -0.046875q0.140625 0 0.1875 0.046875q0.046875 0.046875 0.046875 0.1875q0 0.140625 0 0.234375l-0.1875 1.03125l0.75 -0.703125q0.1875 -0.140625 0.328125 -0.140625q0.09375 0 0.1875 0.09375q0.046875 0 0.046875 0.140625q0 0.140625 -0.09375 0.1875zm-1.265625 2.8125076q0.9375 0 1.640625 -0.703125q0.65625 -0.6562576 0.65625 -1.5937576q0 -0.9375 -0.65625 -1.59375q-0.703125 -0.703125 -1.640625 -0.703125q-0.9375 0 -1.640625 0.703125q-0.65625 0.65625 -0.65625 1.59375q0 0.9375 0.65625 1.5937576q0.703125 0.703125 1.640625 0.703125zm1.921875 -0.515625q-0.84375 0.84375 -1.921875 0.84375q-1.078125 0 -1.875 -0.796875q-0.75 -0.7500076 -0.75 -1.8281326q0 -1.078125 0.703125 -1.78125q0.84375 -0.84375 1.921875 -0.84375q1.078125 0 1.875 0.796875q0.75 0.75 0.75 1.828125q0 1.078125 -0.703125 1.7812576z" fill-rule="nonzero"/><path fill="#cfe2f3" d="m231.08923 120.96071l0 0c0 -2.1743927 1.7626953 -3.937088 3.937088 -3.937088l59.117966 0c1.0441589 0 2.0455933 0.41480255 2.7839355 1.1531448c0.7383423 0.7383499 1.1531372 1.7397614 1.1531372 2.7839432l0 15.747879c0 2.1743927 -1.7626953 3.937088 -3.9370728 3.937088l-59.117966 0c-2.1743927 0 -3.937088 -1.7626953 -3.937088 -3.937088z" fill-rule="evenodd"/><path stroke="#000000" stroke-width="1.0" stroke-linejoin="round" stroke-linecap="butt" d="m231.08923 120.96071l0 0c0 -2.1743927 1.7626953 -3.937088 3.937088 -3.937088l59.117966 0c1.0441589 0 2.0455933 0.41480255 2.7839355 1.1531448c0.7383423 0.7383499 1.1531372 1.7397614 1.1531372 2.7839432l0 15.747879c0 2.1743927 -1.7626953 3.937088 -3.9370728 3.937088l-59.117966 0c-2.1743927 0 -3.937088 -1.7626953 -3.937088 -3.937088z" fill-rule="evenodd"/><path fill="#000000" d="m251.15073 133.35464l-1.046875 0l0 -6.71875q-0.390625 0.359375 -1.015625 0.734375q-0.609375 0.359375 -1.09375 0.53125l0 -1.015625q0.875 -0.421875 1.53125 -1.0q0.671875 -0.59375 0.953125 -1.15625l0.671875 0l0 8.625zm2.7050781 -4.234375q0 -1.53125 0.3125 -2.453125q0.3125 -0.9375 0.921875 -1.4375q0.625 -0.5 1.5625 -0.5q0.6875 0 1.203125 0.28125q0.53125 0.28125 0.875 0.8125q0.34375 0.515625 0.53125 1.265625q0.1875 0.75 0.1875 2.03125q0 1.515625 -0.3125 2.4375q-0.296875 0.921875 -0.921875 1.4375q-0.609375 0.5 -1.5625 0.5q-1.234375 0 -1.953125 -0.890625q-0.84375 -1.0625 -0.84375 -3.484375zm1.078125 0q0 2.109375 0.5 2.8125q0.5 0.703125 1.21875 0.703125q0.734375 0 1.21875 -0.703125q0.5 -0.703125 0.5 -2.8125q0 -2.125 -0.5 -2.8125q-0.484375 -0.703125 -1.234375 -0.703125q-0.71875 0 -1.15625 0.609375q-0.546875 0.78125 -0.546875 2.90625zm5.751953 2.25l1.015625 -0.09375q0.125 0.71875 0.484375 1.046875q0.375 0.3125 0.9375 0.3125q0.484375 0 0.84375 -0.21875q0.375 -0.234375 0.609375 -0.59375q0.234375 -0.375 0.390625 -1.0q0.15625 -0.640625 0.15625 -1.296875q0 -0.078125 0 -0.21875q-0.3125 0.5 -0.859375 0.828125q-0.546875 0.3125 -1.1875 0.3125q-1.078125 0 -1.8125 -0.765625q-0.734375 -0.78125 -0.734375 -2.046875q0 -1.3125 0.765625 -2.109375q0.78125 -0.796875 1.9375 -0.796875q0.828125 0 1.515625 0.453125q0.703125 0.453125 1.0625 1.296875q0.359375 0.828125 0.359375 2.40625q0 1.640625 -0.359375 2.625q-0.34375 0.96875 -1.0625 1.484375q-0.703125 0.5 -1.640625 0.5q-1.015625 0 -1.65625 -0.546875q-0.640625 -0.5625 -0.765625 -1.578125zm4.3125 -3.796875q0 -0.90625 -0.484375 -1.4375q-0.46875 -0.53125 -1.15625 -0.53125q-0.703125 0 -1.234375 0.578125q-0.515625 0.5625 -0.515625 1.484375q0 0.8125 0.5 1.328125q0.5 0.515625 1.21875 0.515625q0.734375 0 1.203125 -0.515625q0.46875 -0.515625 0.46875 -1.421875zm6.1484375 8.3125l0 -11.265625l0.90625 0l0 11.265625l-0.90625 0z" fill-rule="nonzero"/><path fill="#000000" d="m280.75424 128.52652q-0.09375 0.046875 -0.328125 0.1875l-0.84375 0.328125l0.84375 0.328125q0.234375 0.09375 0.328125 0.140625q0.09375 0.09375 0.09375 0.1875q0 0.09375 -0.046875 0.140625q-0.09375 0.09375 -0.1875 0.09375q-0.140625 0 -0.328125 -0.140625l-0.75 -0.65625l0.140625 0.984375q0.046875 0.140625 0.046875 0.234375q0 0.09375 -0.09375 0.1875q-0.046875 0.09375 -0.140625 0.09375q-0.140625 0 -0.1875 -0.09375q-0.046875 -0.09375 -0.046875 -0.1875q0 -0.09375 0 -0.234375l0.1875 -0.984375l-0.75 0.65625q-0.140625 0.140625 -0.328125 0.140625q-0.046875 0 -0.140625 -0.09375q-0.046875 -0.046875 -0.046875 -0.140625q0 -0.09375 0.046875 -0.1875q0.09375 -0.046875 0.375 -0.140625l0.796875 -0.328125l-0.796875 -0.328125q-0.28125 -0.140625 -0.375 -0.1875q-0.046875 -0.046875 -0.046875 -0.1875q0 -0.140625 0.046875 -0.140625q0.09375 -0.09375 0.140625 -0.09375q0.1875 0 0.328125 0.140625l0.75 0.703125l-0.140625 -1.03125q-0.046875 -0.140625 -0.046875 -0.234375q0 -0.140625 0.046875 -0.1875q0.09375 -0.046875 0.1875 -0.046875q0.140625 0 0.1875 0.046875q0.046875 0.046875 0.046875 0.1875q0 0.140625 0 0.234375l-0.1875 1.03125l0.75 -0.703125q0.1875 -0.140625 0.328125 -0.140625q0.09375 0 0.1875 0.09375q0.046875 0 0.046875 0.140625q0 0.140625 -0.09375 0.1875zm-1.265625 2.8125q0.9375 0 1.640625 -0.703125q0.65625 -0.65625 0.65625 -1.59375q0 -0.9375 -0.65625 -1.59375q-0.703125 -0.703125 -1.640625 -0.703125q-0.9375 0 -1.640625 0.703125q-0.65625 0.65625 -0.65625 1.59375q0 0.9375 0.65625 1.59375q0.703125 0.703125 1.640625 0.703125zm1.921875 -0.515625q-0.84375 0.84375 -1.921875 0.84375q-1.078125 0 -1.875 -0.796875q-0.75 -0.75 -0.75 -1.828125q0 -1.078125 0.703125 -1.78125q0.84375 -0.84375 1.921875 -0.84375q1.078125 0 1.875 0.796875q0.75 0.75 0.75 1.828125q0 1.078125 -0.703125 1.78125z" fill-rule="nonzero"/><path fill="#cfe2f3" d="m327.8714 155.84917l0 0c0 -2.1743927 1.7626953 -3.937088 3.9370728 -3.937088l56.125824 0c1.0441895 0 2.0455933 0.41479492 2.7839355 1.1531372c0.7383728 0.73835754 1.1531677 1.7397614 1.1531677 2.7839508l0 15.747864c0 2.1743927 -1.7626953 3.937088 -3.9371033 3.937088l-56.125824 0c-2.1743774 0 -3.9370728 -1.7626953 -3.9370728 -3.937088z" fill-rule="evenodd"/><path stroke="#000000" stroke-width="1.0" stroke-linejoin="round" stroke-linecap="butt" d="m327.8714 155.84917l0 0c0 -2.1743927 1.7626953 -3.937088 3.9370728 -3.937088l56.125824 0c1.0441895 0 2.0455933 0.41479492 2.7839355 1.1531372c0.7383728 0.73835754 1.1531677 1.7397614 1.1531677 2.7839508l0 15.747864c0 2.1743927 -1.7626953 3.937088 -3.9371033 3.937088l-56.125824 0c-2.1743774 0 -3.9370728 -1.7626953 -3.9370728 -3.937088z" fill-rule="evenodd"/><path fill="#000000" d="m346.43683 168.2431l-1.046875 0l0 -6.71875q-0.390625 0.359375 -1.015625 0.734375q-0.609375 0.359375 -1.09375 0.53125l0 -1.015625q0.875 -0.421875 1.53125 -1.0q0.671875 -0.59375 0.953125 -1.15625l0.671875 0l0 8.625zm2.7050781 -4.234375q0 -1.53125 0.3125 -2.453125q0.3125 -0.9375 0.921875 -1.4375q0.625 -0.5 1.5625 -0.5q0.6875 0 1.203125 0.28125q0.53125 0.28125 0.875 0.8125q0.34375 0.515625 0.53125 1.265625q0.1875 0.75 0.1875 2.03125q0 1.515625 -0.3125 2.4375q-0.296875 0.921875 -0.921875 1.4375q-0.609375 0.5 -1.5625 0.5q-1.234375 0 -1.953125 -0.890625q-0.84375 -1.0625 -0.84375 -3.484375zm1.078125 0q0 2.109375 0.5 2.8125q0.5 0.703125 1.21875 0.703125q0.734375 0 1.21875 -0.703125q0.5 -0.703125 0.5 -2.8125q0 -2.125 -0.5 -2.8125q-0.484375 -0.703125 -1.234375 -0.703125q-0.71875 0 -1.15625 0.609375q-0.546875 0.78125 -0.546875 2.90625zm5.658203 -3.234375l0 -1.015625l5.5625 0l0 0.828125q-0.8125 0.875 -1.625 2.328125q-0.796875 1.4375 -1.234375 2.96875q-0.328125 1.078125 -0.40625 2.359375l-1.09375 0q0.015625 -1.015625 0.390625 -2.453125q0.390625 -1.4375 1.09375 -2.765625q0.71875 -1.328125 1.53125 -2.25l-4.21875 0zm10.5546875 10.0l0 -11.265625l0.90625 0l0 11.265625l-0.90625 0z" fill-rule="nonzero"/><path fill="#000000" d="m376.04034 163.41498q-0.09375 0.046875 -0.328125 0.1875l-0.84375 0.328125l0.84375 0.328125q0.234375 0.09375 0.328125 0.140625q0.09375 0.09375 0.09375 0.1875q0 0.09375 -0.046875 0.140625q-0.09375 0.09375 -0.1875 0.09375q-0.140625 0 -0.328125 -0.140625l-0.75 -0.65625l0.140625 0.984375q0.046875 0.140625 0.046875 0.234375q0 0.09375 -0.09375 0.1875q-0.046875 0.09375 -0.140625 0.09375q-0.140625 0 -0.1875 -0.09375q-0.046875 -0.09375 -0.046875 -0.1875q0 -0.09375 0 -0.234375l0.1875 -0.984375l-0.75 0.65625q-0.140625 0.140625 -0.328125 0.140625q-0.046875 0 -0.140625 -0.09375q-0.046875 -0.046875 -0.046875 -0.140625q0 -0.09375 0.046875 -0.1875q0.09375 -0.046875 0.375 -0.140625l0.796875 -0.328125l-0.796875 -0.328125q-0.28125 -0.140625 -0.375 -0.1875q-0.046875 -0.046875 -0.046875 -0.1875q0 -0.140625 0.046875 -0.140625q0.09375 -0.09375 0.140625 -0.09375q0.1875 0 0.328125 0.140625l0.75 0.703125l-0.140625 -1.03125q-0.046875 -0.140625 -0.046875 -0.234375q0 -0.140625 0.046875 -0.1875q0.09375 -0.046875 0.1875 -0.046875q0.140625 0 0.1875 0.046875q0.046875 0.046875 0.046875 0.1875q0 0.140625 0 0.234375l-0.1875 1.03125l0.75 -0.703125q0.1875 -0.140625 0.328125 -0.140625q0.09375 0 0.1875 0.09375q0.046875 0 0.046875 0.140625q0 0.140625 -0.09375 0.1875zm-1.265625 2.8125q0.9375 0 1.640625 -0.703125q0.65625 -0.65625 0.65625 -1.59375q0 -0.9375 -0.65625 -1.59375q-0.703125 -0.703125 -1.640625 -0.703125q-0.9375 0 -1.640625 0.703125q-0.65625 0.65625 -0.65625 1.59375q0 0.9375 0.65625 1.59375q0.703125 0.703125 1.640625 0.703125zm1.921875 -0.515625q-0.84375 0.84375 -1.921875 0.84375q-1.078125 0 -1.875 -0.796875q-0.75 -0.75 -0.75 -1.828125q0 -1.078125 0.703125 -1.78125q0.84375 -0.84375 1.921875 -0.84375q1.078125 0 1.875 0.796875q0.75 0.75 0.75 1.828125q0 1.078125 -0.703125 1.78125z" fill-rule="nonzero"/><path fill="#000000" fill-opacity="0.0" d="m280.09186 129.49475l47.77954 -74.20473" fill-rule="evenodd"/><path stroke="#000000" stroke-width="1.0" stroke-linejoin="round" stroke-linecap="butt" d="m280.09186 129.49475l44.53131 -69.16002" fill-rule="evenodd"/><path fill="#000000" stroke="#000000" stroke-width="1.0" stroke-linecap="butt" d="m326.01193 61.22893l1.0680237 -4.7097626l-3.8455505 2.92136z" fill-rule="evenodd"/><path fill="#000000" fill-opacity="0.0" d="m180.60104 111.51181l50.48819 17.32283" fill-rule="evenodd"/><path stroke="#000000" stroke-width="1.0" stroke-linejoin="round" stroke-linecap="butt" d="m180.60104 111.51181l44.812958 15.375626" fill-rule="evenodd"/><path fill="#000000" stroke="#000000" stroke-width="1.0" stroke-linecap="butt" d="m224.87794 128.44977l4.8285217 -0.08956909l-3.756424 -3.0350952z" fill-rule="evenodd"/><path fill="#000000" fill-opacity="0.0" d="m83.58793 126.2126l47.999992 -59.11811" fill-rule="evenodd"/><path stroke="#000000" stroke-width="1.0" stroke-linejoin="round" stroke-linecap="butt" d="m83.58793 126.2126l44.218033 -54.460136" fill-rule="evenodd"/><path fill="#000000" stroke="#000000" stroke-width="1.0" stroke-linecap="butt" d="m129.08824 72.793594l1.5782013 -4.564186l-4.142769 2.4819183z" fill-rule="evenodd"/><path fill="#000000" fill-opacity="0.0" d="m62.425198 74.08399l58.582676 0l0 23.622047l-58.582676 0z" fill-rule="evenodd"/><path fill="#000000" d="m76.39394 95.88399l-1.171875 0l0 -7.46875q-0.421875 0.40625 -1.109375 0.8125q-0.6875 0.40625 -1.234375 0.609375l0 -1.140625q0.984375 -0.453125 1.71875 -1.109375q0.734375 -0.671875 1.03125 -1.28125l0.765625 0l0 9.578125zm2.9906006 -4.703125q0 -1.6875 0.34375 -2.71875q0.359375 -1.03125 1.046875 -1.59375q0.6875 -0.5625 1.71875 -0.5625q0.78125 0 1.359375 0.3125q0.578125 0.296875 0.953125 0.890625q0.375 0.578125 0.59375 1.421875q0.21875 0.828125 0.21875 2.25q0 1.671875 -0.359375 2.703125q-0.34375 1.03125 -1.03125 1.59375q-0.671875 0.5625 -1.734375 0.5625q-1.375 0 -2.15625 -0.984375q-0.953125 -1.1875 -0.953125 -3.875zm1.203125 0q0 2.34375 0.546875 3.125q0.5625 0.78125 1.359375 0.78125q0.8125 0 1.359375 -0.78125q0.5625 -0.78125 0.5625 -3.125q0 -2.359375 -0.5625 -3.125q-0.546875 -0.78125 -1.359375 -0.78125q-0.8125 0 -1.296875 0.6875q-0.609375 0.875 -0.609375 3.21875zm6.2249756 2.1875l1.171875 -0.15625q0.203125 1.0 0.6875 1.4375q0.484375 0.4375 1.171875 0.4375q0.828125 0 1.390625 -0.578125q0.578125 -0.578125 0.578125 -1.421875q0 -0.796875 -0.53125 -1.3125q-0.515625 -0.53125 -1.328125 -0.53125q-0.34375 0 -0.828125 0.125l0.125 -1.03125q0.125 0.015625 0.1875 0.015625q0.75 0 1.34375 -0.390625q0.609375 -0.390625 0.609375 -1.203125q0 -0.640625 -0.4375 -1.0625q-0.4375 -0.421875 -1.125 -0.421875q-0.6875 0 -1.140625 0.4375q-0.453125 0.421875 -0.59375 1.28125l-1.171875 -0.21875q0.21875 -1.171875 0.984375 -1.8125q0.765625 -0.65625 1.890625 -0.65625q0.78125 0 1.4375 0.34375q0.65625 0.328125 1.0 0.90625q0.359375 0.578125 0.359375 1.234375q0 0.609375 -0.34375 1.125q-0.328125 0.5 -0.96875 0.796875q0.84375 0.203125 1.3125 0.828125q0.46875 0.609375 0.46875 1.53125q0 1.25 -0.921875 2.125q-0.90625 0.859375 -2.296875 0.859375q-1.25 0 -2.09375 -0.75q-0.828125 -0.75 -0.9375 -1.9375zm13.631088 0.171875q-0.015625 -0.234375 -0.015625 -0.359375q0 -0.6875 0.203125 -1.1875q0.140625 -0.375 0.453125 -0.765625q0.234375 -0.28125 0.84375 -0.8125q0.609375 -0.53125 0.78125 -0.84375q0.1875 -0.328125 0.1875 -0.703125q0 -0.6875 -0.53125 -1.203125q-0.53125 -0.515625 -1.296875 -0.515625q-0.75 0 -1.25 0.46875q-0.5 0.46875 -0.65625 1.453125l-1.21875 -0.140625q0.171875 -1.328125 0.96875 -2.03125q0.8125 -0.71875 2.125 -0.71875q1.40625 0 2.234375 0.765625q0.828125 0.75 0.828125 1.84375q0 0.625 -0.296875 1.15625q-0.28125 0.515625 -1.140625 1.265625q-0.5625 0.515625 -0.75 0.765625q-0.171875 0.234375 -0.265625 0.546875q-0.078125 0.3125 -0.078125 1.015625l-1.125 0zm-0.078125 2.34375l0 -1.328125l1.328125 0l0 1.328125l-1.328125 0z" fill-rule="nonzero"/><path fill="#000000" fill-opacity="0.0" d="m165.08661 78.90026l0 20.503937" fill-rule="evenodd"/><path stroke="#000000" stroke-width="1.0" stroke-linejoin="round" stroke-linecap="butt" d="m165.08661 78.90026l0 14.503937" fill-rule="evenodd"/><path fill="#000000" stroke="#000000" stroke-width="1.0" stroke-linecap="butt" d="m163.43488 93.4042l1.6517334 4.538101l1.6517334 -4.538101z" fill-rule="evenodd"/><path fill="#cfe2f3" d="m327.8727 82.87672l0 0c0 -2.1743927 1.7626953 -3.9370804 3.9370728 -3.9370804l56.125824 0c1.0441895 0 2.0455933 0.41479492 2.7839355 1.1531448c0.7383728 0.7383423 1.1531677 1.7397614 1.1531677 2.7839355l0 15.747879c0 2.1743927 -1.7626953 3.9370804 -3.9371033 3.9370804l-56.125824 0c-2.1743774 0 -3.9370728 -1.7626877 -3.9370728 -3.9370804z" fill-rule="evenodd"/><path stroke="#000000" stroke-width="1.0" stroke-linejoin="round" stroke-linecap="butt" d="m327.8727 82.87672l0 0c0 -2.1743927 1.7626953 -3.9370804 3.9370728 -3.9370804l56.125824 0c1.0441895 0 2.0455933 0.41479492 2.7839355 1.1531448c0.7383728 0.7383423 1.1531677 1.7397614 1.1531677 2.7839355l0 15.747879c0 2.1743927 -1.7626953 3.9370804 -3.9371033 3.9370804l-56.125824 0c-2.1743774 0 -3.9370728 -1.7626877 -3.9370728 -3.9370804z" fill-rule="evenodd"/><path fill="#000000" d="m346.43814 95.27065l-1.046875 0l0 -6.71875q-0.390625 0.359375 -1.015625 0.734375q-0.609375 0.359375 -1.09375 0.53125l0 -1.015625q0.875 -0.421875 1.53125 -1.0q0.671875 -0.59375 0.953125 -1.15625l0.671875 0l0 8.625zm2.7050781 -4.234375q0 -1.53125 0.3125 -2.453125q0.3125 -0.9375 0.921875 -1.4375q0.625 -0.5 1.5625 -0.5q0.6875 0 1.203125 0.28125q0.53125 0.28125 0.875 0.8125q0.34375 0.515625 0.53125 1.265625q0.1875 0.75 0.1875 2.03125q0 1.515625 -0.3125 2.4375q-0.296875 0.921875 -0.921875 1.4375q-0.609375 0.5 -1.5625 0.5q-1.234375 0 -1.953125 -0.890625q-0.84375 -1.0625 -0.84375 -3.484375zm1.078125 0q0 2.109375 0.5 2.8125q0.5 0.703125 1.21875 0.703125q0.734375 0 1.21875 -0.703125q0.5 -0.703125 0.5 -2.8125q0 -2.125 -0.5 -2.8125q-0.484375 -0.703125 -1.234375 -0.703125q-0.71875 0 -1.15625 0.609375q-0.546875 0.78125 -0.546875 2.90625zm9.564453 4.234375l-1.046875 0l0 -6.71875q-0.390625 0.359375 -1.015625 0.734375q-0.609375 0.359375 -1.09375 0.53125l0 -1.015625q0.875 -0.421875 1.53125 -1.0q0.671875 -0.59375 0.953125 -1.15625l0.671875 0l0 8.625zm6.6484375 2.5312576l0 -11.265633l0.90625 0l0 11.265633l-0.90625 0z" fill-rule="nonzero"/><path fill="#000000" d="m376.04166 90.44253q-0.09375 0.046875 -0.328125 0.1875l-0.84375 0.328125l0.84375 0.328125q0.234375 0.09375 0.328125 0.140625q0.09375 0.09375 0.09375 0.1875q0 0.09375 -0.046875 0.140625q-0.09375 0.09375 -0.1875 0.09375q-0.140625 0 -0.328125 -0.140625l-0.75 -0.65625l0.140625 0.984375q0.046875 0.140625 0.046875 0.234375q0 0.09375 -0.09375 0.1875q-0.046875 0.09375 -0.140625 0.09375q-0.140625 0 -0.1875 -0.09375q-0.046875 -0.09375 -0.046875 -0.1875q0 -0.09375 0 -0.234375l0.1875 -0.984375l-0.75 0.65625q-0.140625 0.140625 -0.328125 0.140625q-0.046875 0 -0.140625 -0.09375q-0.046875 -0.046875 -0.046875 -0.140625q0 -0.09375 0.046875 -0.1875q0.09375 -0.046875 0.375 -0.140625l0.796875 -0.328125l-0.796875 -0.328125q-0.28125 -0.140625 -0.375 -0.1875q-0.046875 -0.046875 -0.046875 -0.1875q0 -0.140625 0.046875 -0.140625q0.09375 -0.09375 0.140625 -0.09375q0.1875 0 0.328125 0.140625l0.75 0.703125l-0.140625 -1.03125q-0.046875 -0.140625 -0.046875 -0.234375q0 -0.140625 0.046875 -0.1875q0.09375 -0.046875 0.1875 -0.046875q0.140625 0 0.1875 0.046875q0.046875 0.046875 0.046875 0.1875q0 0.140625 0 0.234375l-0.1875 1.03125l0.75 -0.703125q0.1875 -0.140625 0.328125 -0.140625q0.09375 0 0.1875 0.09375q0.046875 0 0.046875 0.140625q0 0.140625 -0.09375 0.1875zm-1.265625 2.8125q0.9375 0 1.640625 -0.703125q0.65625 -0.65625 0.65625 -1.59375q0 -0.9375 -0.65625 -1.59375q-0.703125 -0.703125 -1.640625 -0.703125q-0.9375 0 -1.640625 0.703125q-0.65625 0.65625 -0.65625 1.59375q0 0.9375 0.65625 1.59375q0.703125 0.703125 1.640625 0.703125zm1.921875 -0.515625q-0.84375 0.84375 -1.921875 0.84375q-1.078125 0 -1.875 -0.796875q-0.75 -0.75 -0.75 -1.828125q0 -1.078125 0.703125 -1.78125q0.84375 -0.84375 1.921875 -0.84375q1.078125 0 1.875 0.796875q0.75 0.75 0.75 1.828125q0 1.078125 -0.703125 1.78125z" fill-rule="nonzero"/><path fill="#cfe2f3" d="m327.8714 47.41609l0 0c0 -2.1743927 1.7626953 -3.9370842 3.9370728 -3.9370842l56.125824 0c1.0441895 0 2.0455933 0.41479874 2.7839355 1.1531448c0.7383728 0.7383461 1.1531677 1.7397614 1.1531677 2.7839394l0 15.747875c0 2.1743927 -1.7626953 3.937088 -3.9371033 3.937088l-56.125824 0c-2.1743774 0 -3.9370728 -1.7626953 -3.9370728 -3.937088z" fill-rule="evenodd"/><path stroke="#000000" stroke-width="1.0" stroke-linejoin="round" stroke-linecap="butt" d="m327.8714 47.41609l0 0c0 -2.1743927 1.7626953 -3.9370842 3.9370728 -3.9370842l56.125824 0c1.0441895 0 2.0455933 0.41479874 2.7839355 1.1531448c0.7383728 0.7383461 1.1531677 1.7397614 1.1531677 2.7839394l0 15.747875c0 2.1743927 -1.7626953 3.937088 -3.9371033 3.937088l-56.125824 0c-2.1743774 0 -3.9370728 -1.7626953 -3.9370728 -3.937088z" fill-rule="evenodd"/><path fill="#000000" d="m346.43683 59.810024l-1.046875 0l0 -6.71875q-0.390625 0.359375 -1.015625 0.734375q-0.609375 0.359375 -1.09375 0.53125l0 -1.015625q0.875 -0.421875 1.53125 -1.0q0.671875 -0.59375 0.953125 -1.15625l0.671875 0l0 8.625zm2.7050781 -4.234375q0 -1.53125 0.3125 -2.453125q0.3125 -0.9375 0.921875 -1.4375q0.625 -0.5 1.5625 -0.5q0.6875 0 1.203125 0.28125q0.53125 0.28125 0.875 0.8125q0.34375 0.515625 0.53125 1.265625q0.1875 0.75 0.1875 2.03125q0 1.515625 -0.3125 2.4375q-0.296875 0.921875 -0.921875 1.4375q-0.609375 0.5 -1.5625 0.5q-1.234375 0 -1.953125 -0.890625q-0.84375 -1.0625 -0.84375 -3.484375zm1.078125 0q0 2.109375 0.5 2.8125q0.5 0.703125 1.21875 0.703125q0.734375 0 1.21875 -0.703125q0.5 -0.703125 0.5 -2.8125q0 -2.125 -0.5 -2.8125q-0.484375 -0.703125 -1.234375 -0.703125q-0.71875 0 -1.15625 0.609375q-0.546875 0.78125 -0.546875 2.90625zm5.595703 0q0 -1.53125 0.3125 -2.453125q0.3125 -0.9375 0.921875 -1.4375q0.625 -0.5 1.5625 -0.5q0.6875 0 1.203125 0.28125q0.53125 0.28125 0.875 0.8125q0.34375 0.515625 0.53125 1.265625q0.1875 0.75 0.1875 2.03125q0 1.515625 -0.3125 2.4375q-0.296875 0.921875 -0.921875 1.4375q-0.609375 0.5 -1.5625 0.5q-1.234375 0 -1.953125 -0.890625q-0.84375 -1.0625 -0.84375 -3.484375zm1.078125 0q0 2.109375 0.5 2.8125q0.5 0.703125 1.21875 0.703125q0.734375 0 1.21875 -0.703125q0.5 -0.703125 0.5 -2.8125q0 -2.125 -0.5 -2.8125q-0.484375 -0.703125 -1.234375 -0.703125q-0.71875 0 -1.15625 0.609375q-0.546875 0.78125 -0.546875 2.90625zm9.5390625 6.765629l0 -11.265629l0.90625 0l0 11.265629l-0.90625 0z" fill-rule="nonzero"/><path fill="#000000" d="m376.04034 54.9819q-0.09375 0.046875 -0.328125 0.1875l-0.84375 0.328125l0.84375 0.328125q0.234375 0.09375 0.328125 0.140625q0.09375 0.09375 0.09375 0.1875q0 0.09375 -0.046875 0.140625q-0.09375 0.09375 -0.1875 0.09375q-0.140625 0 -0.328125 -0.140625l-0.75 -0.65625l0.140625 0.984375q0.046875 0.140625 0.046875 0.234375q0 0.09375 -0.09375 0.1875q-0.046875 0.09375 -0.140625 0.09375q-0.140625 0 -0.1875 -0.09375q-0.046875 -0.09375 -0.046875 -0.1875q0 -0.09375 0 -0.234375l0.1875 -0.984375l-0.75 0.65625q-0.140625 0.140625 -0.328125 0.140625q-0.046875 0 -0.140625 -0.09375q-0.046875 -0.046875 -0.046875 -0.140625q0 -0.09375 0.046875 -0.1875q0.09375 -0.046875 0.375 -0.140625l0.796875 -0.328125l-0.796875 -0.328125q-0.28125 -0.140625 -0.375 -0.1875q-0.046875 -0.046875 -0.046875 -0.1875q0 -0.140625 0.046875 -0.140625q0.09375 -0.09375 0.140625 -0.09375q0.1875 0 0.328125 0.140625l0.75 0.703125l-0.140625 -1.03125q-0.046875 -0.140625 -0.046875 -0.234375q0 -0.140625 0.046875 -0.1875q0.09375 -0.046875 0.1875 -0.046875q0.140625 0 0.1875 0.046875q0.046875 0.046875 0.046875 0.1875q0 0.140625 0 0.234375l-0.1875 1.03125l0.75 -0.703125q0.1875 -0.140625 0.328125 -0.140625q0.09375 0 0.1875 0.09375q0.046875 0 0.046875 0.140625q0 0.140625 -0.09375 0.1875zm-1.265625 2.8125q0.9375 0 1.640625 -0.703125q0.65625 -0.65625 0.65625 -1.59375q0 -0.9375 -0.65625 -1.59375q-0.703125 -0.703125 -1.640625 -0.703125q-0.9375 0 -1.640625 0.703125q-0.65625 0.65625 -0.65625 1.59375q0 0.9375 0.65625 1.59375q0.703125 0.703125 1.640625 0.703125zm1.921875 -0.515625q-0.84375 0.84375 -1.921875 0.84375q-1.078125 0 -1.875 -0.796875q-0.75 -0.75 -0.75 -1.828125q0 -1.078125 0.703125 -1.78125q0.84375 -0.84375 1.921875 -0.84375q1.078125 0 1.875 0.796875q0.75 0.75 0.75 1.828125q0 1.078125 -0.703125 1.78125z" fill-rule="nonzero"/><path fill="#000000" fill-opacity="0.0" d="m359.8714 67.10105l0 11.842522" fill-rule="evenodd"/><path stroke="#000000" stroke-width="1.0" stroke-linejoin="round" stroke-linecap="butt" d="m359.8714 67.10105l0 5.8425217" fill-rule="evenodd"/><path fill="#000000" stroke="#000000" stroke-width="1.0" stroke-linecap="butt" d="m358.21967 72.94357l1.6517334 4.5380936l1.6517334 -4.5380936z" fill-rule="evenodd"/><path fill="#000000" fill-opacity="0.0" d="m359.8727 102.561676l0 11.842522" fill-rule="evenodd"/><path stroke="#000000" stroke-width="1.0" stroke-linejoin="round" stroke-linecap="butt" d="m359.8727 102.561676l0 5.8425217" fill-rule="evenodd"/><path fill="#000000" stroke="#000000" stroke-width="1.0" stroke-linecap="butt" d="m358.22098 108.4042l1.6517334 4.538101l1.6517334 -4.538101z" fill-rule="evenodd"/><path fill="#000000" fill-opacity="0.0" d="m374.7034 127.49869l46.960632 -36.7874" fill-rule="evenodd"/><path stroke="#000000" stroke-width="1.0" stroke-linejoin="round" stroke-linecap="butt" d="m374.7034 127.49869l42.237335 -33.087334" fill-rule="evenodd"/><path fill="#000000" stroke="#000000" stroke-width="1.0" stroke-linecap="butt" d="m417.95935 95.711624l2.5538635 -4.098816l-4.5910645 1.4982758z" fill-rule="evenodd"/><path fill="#000000" fill-opacity="0.0" d="m588.6588 74.08268l-0.5039673 80.50393" fill-rule="evenodd"/><path stroke="#000000" stroke-width="1.0" stroke-linejoin="round" stroke-linecap="butt" d="m588.6588 74.08268l-0.46636963 74.50405" fill-rule="evenodd"/><path fill="#000000" stroke="#000000" stroke-width="1.0" stroke-linecap="butt" d="m586.5407 148.57639l1.623291 4.548355l1.6801147 -4.527664z" fill-rule="evenodd"/><path fill="#000000" fill-opacity="0.0" d="m581.00525 99.40026l75.49609 0l0 23.622047l-75.49609 0z" fill-rule="evenodd"/><path fill="#000000" d="m590.6615 117.93589l1.015625 -0.09375q0.125 0.71875 0.484375 1.046875q0.375 0.3125 0.9375 0.3125q0.484375 0 0.84375 -0.21875q0.375 -0.234375 0.609375 -0.59375q0.234375 -0.375 0.390625 -1.0q0.15625 -0.640625 0.15625 -1.296875q0 -0.078125 0 -0.21875q-0.3125 0.5 -0.859375 0.828125q-0.546875 0.3125 -1.1875 0.3125q-1.078125 0 -1.8125 -0.765625q-0.734375 -0.78125 -0.734375 -2.046875q0 -1.3125 0.765625 -2.109375q0.78125 -0.796875 1.9375 -0.796875q0.828125 0 1.515625 0.453125q0.703125 0.453125 1.0625 1.296875q0.359375 0.828125 0.359375 2.40625q0 1.640625 -0.359375 2.625q-0.34375 0.96875 -1.0625 1.484375q-0.703125 0.5 -1.640625 0.5q-1.015625 0 -1.65625 -0.546875q-0.640625 -0.5625 -0.765625 -1.578125zm4.3125 -3.796875q0 -0.90625 -0.484375 -1.4375q-0.46875 -0.53125 -1.15625 -0.53125q-0.703125 0 -1.234375 0.578125q-0.515625 0.5625 -0.515625 1.484375q0 0.8125 0.5 1.328125q0.5 0.515625 1.21875 0.515625q0.734375 0 1.203125 -0.515625q0.46875 -0.515625 0.46875 -1.421875zm2.3613281 3.796875l1.015625 -0.09375q0.125 0.71875 0.484375 1.046875q0.375 0.3125 0.9375 0.3125q0.484375 0 0.84375 -0.21875q0.375 -0.234375 0.609375 -0.59375q0.234375 -0.375 0.390625 -1.0q0.15625 -0.640625 0.15625 -1.296875q0 -0.078125 0 -0.21875q-0.3125 0.5 -0.859375 0.828125q-0.546875 0.3125 -1.1875 0.3125q-1.078125 0 -1.8125 -0.765625q-0.734375 -0.78125 -0.734375 -2.046875q0 -1.3125 0.765625 -2.109375q0.78125 -0.796875 1.9375 -0.796875q0.828125 0 1.515625 0.453125q0.703125 0.453125 1.0625 1.296875q0.359375 0.828125 0.359375 2.40625q0 1.640625 -0.359375 2.625q-0.34375 0.96875 -1.0625 1.484375q-0.703125 0.5 -1.640625 0.5q-1.015625 0 -1.65625 -0.546875q-0.640625 -0.5625 -0.765625 -1.578125zm4.3125 -3.796875q0 -0.90625 -0.484375 -1.4375q-0.46875 -0.53125 -1.15625 -0.53125q-0.703125 0 -1.234375 0.578125q-0.515625 0.5625 -0.515625 1.484375q0 0.8125 0.5 1.328125q0.5 0.515625 1.21875 0.515625q0.734375 0 1.203125 -0.515625q0.46875 -0.515625 0.46875 -1.421875zm2.3613281 3.796875l1.015625 -0.09375q0.125 0.71875 0.484375 1.046875q0.375 0.3125 0.9375 0.3125q0.484375 0 0.84375 -0.21875q0.375 -0.234375 0.609375 -0.59375q0.234375 -0.375 0.390625 -1.0q0.15625 -0.640625 0.15625 -1.296875q0 -0.078125 0 -0.21875q-0.3125 0.5 -0.859375 0.828125q-0.546875 0.3125 -1.1875 0.3125q-1.078125 0 -1.8125 -0.765625q-0.734375 -0.78125 -0.734375 -2.046875q0 -1.3125 0.765625 -2.109375q0.78125 -0.796875 1.9375 -0.796875q0.828125 0 1.515625 0.453125q0.703125 0.453125 1.0625 1.296875q0.359375 0.828125 0.359375 2.40625q0 1.640625 -0.359375 2.625q-0.34375 0.96875 -1.0625 1.484375q-0.703125 0.5 -1.640625 0.5q-1.015625 0 -1.65625 -0.546875q-0.640625 -0.5625 -0.765625 -1.578125zm4.3125 -3.796875q0 -0.90625 -0.484375 -1.4375q-0.46875 -0.53125 -1.15625 -0.53125q-0.703125 0 -1.234375 0.578125q-0.515625 0.5625 -0.515625 1.484375q0 0.8125 0.5 1.328125q0.5 0.515625 1.21875 0.515625q0.734375 0 1.203125 -0.515625q0.46875 -0.515625 0.46875 -1.421875zm5.8203125 5.78125l0 -6.21875l0.953125 0l0 0.9375q0.359375 -0.65625 0.65625 -0.859375q0.3125 -0.21875 0.6875 -0.21875q0.53125 0 1.078125 0.328125l-0.359375 0.984375q-0.390625 -0.234375 -0.765625 -0.234375q-0.359375 0 -0.640625 0.21875q-0.265625 0.203125 -0.375 0.578125q-0.1875 0.5625 -0.1875 1.21875l0 3.265625l-1.046875 0zm3.6210938 -3.109375q0 -1.734375 0.953125 -2.5625q0.796875 -0.6875 1.953125 -0.6875q1.28125 0 2.09375 0.84375q0.828125 0.828125 0.828125 2.3125q0 1.203125 -0.359375 1.890625q-0.359375 0.6875 -1.0625 1.078125q-0.6875 0.375 -1.5 0.375q-1.296875 0 -2.109375 -0.828125q-0.796875 -0.84375 -0.796875 -2.421875zm1.078125 0q0 1.1875 0.515625 1.78125q0.53125 0.59375 1.3125 0.59375q0.796875 0 1.3125 -0.59375q0.515625 -0.59375 0.515625 -1.8125q0 -1.15625 -0.53125 -1.75q-0.515625 -0.59375 -1.296875 -0.59375q-0.78125 0 -1.3125 0.59375q-0.515625 0.578125 -0.515625 1.78125zm7.126953 3.109375l-1.90625 -6.21875l1.09375 0l0.984375 3.59375l0.375 1.328125q0.03125 -0.09375 0.328125 -1.28125l0.984375 -3.640625l1.078125 0l0.9375 3.609375l0.3125 1.1875l0.359375 -1.203125l1.0625 -3.59375l1.03125 0l-1.953125 6.21875l-1.09375 0l-0.984375 -3.734375l-0.25 -1.046875l-1.25 4.78125l-1.109375 0zm7.1035156 -1.859375l1.03125 -0.15625q0.09375 0.625 0.484375 0.953125q0.40625 0.328125 1.140625 0.328125q0.71875 0 1.0625 -0.28125q0.359375 -0.296875 0.359375 -0.703125q0 -0.359375 -0.3125 -0.5625q-0.21875 -0.140625 -1.078125 -0.359375q-1.15625 -0.296875 -1.609375 -0.5q-0.4375 -0.21875 -0.671875 -0.59375q-0.234375 -0.375 -0.234375 -0.84375q0 -0.40625 0.1875 -0.765625q0.1875 -0.359375 0.515625 -0.59375q0.25 -0.171875 0.671875 -0.296875q0.421875 -0.125 0.921875 -0.125q0.71875 0 1.265625 0.21875q0.5625 0.203125 0.828125 0.5625q0.265625 0.359375 0.359375 0.953125l-1.03125 0.140625q-0.0625 -0.46875 -0.40625 -0.734375q-0.328125 -0.28125 -0.953125 -0.28125q-0.71875 0 -1.03125 0.25q-0.3125 0.234375 -0.3125 0.5625q0 0.203125 0.125 0.359375q0.140625 0.171875 0.40625 0.28125q0.15625 0.0625 0.9375 0.265625q1.125 0.3125 1.5625 0.5q0.4375 0.1875 0.6875 0.546875q0.25 0.359375 0.25 0.90625q0 0.53125 -0.3125 1.0q-0.296875 0.453125 -0.875 0.71875q-0.578125 0.25 -1.3125 0.25q-1.21875 0 -1.859375 -0.5q-0.625 -0.515625 -0.796875 -1.5z" fill-rule="nonzero"/><path fill="#cfe2f3" d="m327.8727 11.956772l0 0c0 -2.1743927 1.7626953 -3.937087 3.9370728 -3.937087l56.125824 0c1.0441895 0 2.0455933 0.4147997 2.7839355 1.1531458c0.7383728 0.73834705 1.1531677 1.7397604 1.1531677 2.7839413l0 15.747873c0 2.1743927 -1.7626953 3.937088 -3.9371033 3.937088l-56.125824 0c-2.1743774 0 -3.9370728 -1.7626953 -3.9370728 -3.937088z" fill-rule="evenodd"/><path stroke="#000000" stroke-width="1.0" stroke-linejoin="round" stroke-linecap="butt" d="m327.8727 11.956772l0 0c0 -2.1743927 1.7626953 -3.937087 3.9370728 -3.937087l56.125824 0c1.0441895 0 2.0455933 0.4147997 2.7839355 1.1531458c0.7383728 0.73834705 1.1531677 1.7397604 1.1531677 2.7839413l0 15.747873c0 2.1743927 -1.7626953 3.937088 -3.9371033 3.937088l-56.125824 0c-2.1743774 0 -3.9370728 -1.7626953 -3.9370728 -3.937088z" fill-rule="evenodd"/><path fill="#000000" d="m342.62857 22.366333l1.015625 -0.09375q0.125 0.71875 0.484375 1.046875q0.375 0.3125 0.9375 0.3125q0.484375 0 0.84375 -0.21875q0.375 -0.234375 0.609375 -0.59375q0.234375 -0.375 0.390625 -1.0q0.15625 -0.640625 0.15625 -1.296875q0 -0.078125 0 -0.21875q-0.3125 0.5 -0.859375 0.828125q-0.546875 0.3125 -1.1875 0.3125q-1.078125 0 -1.8125 -0.765625q-0.734375 -0.78125 -0.734375 -2.046875q0 -1.3125 0.765625 -2.109375q0.78125 -0.796875 1.9375 -0.796875q0.828125 0 1.515625 0.453125q0.703125 0.453125 1.0625 1.296875q0.359375 0.828125 0.359375 2.40625q0 1.640625 -0.359375 2.625q-0.34375 0.96875 -1.0625 1.484375q-0.703125 0.5 -1.640625 0.5q-1.015625 0 -1.65625 -0.546875q-0.640625 -0.5625 -0.765625 -1.578125zm4.3125 -3.796875q0 -0.90625 -0.484375 -1.4375q-0.46875 -0.53125 -1.15625 -0.53125q-0.703125 0 -1.234375 0.578125q-0.515625 0.5625 -0.515625 1.484375q0 0.8125 0.5 1.328125q0.5 0.515625 1.21875 0.515625q0.734375 0 1.203125 -0.515625q0.46875 -0.515625 0.46875 -1.421875zm2.2675781 -1.6875l0 -1.015625l5.5625 0l0 0.828125q-0.8125 0.875 -1.625 2.328125q-0.796875 1.4375 -1.234375 2.96875q-0.328125 1.078125 -0.40625 2.359375l-1.09375 0q0.015625 -1.015625 0.390625 -2.453125q0.390625 -1.4375 1.09375 -2.765625q0.71875 -1.328125 1.53125 -2.25l-4.21875 0zm17.222656 10.000002l0 -11.265627l0.90625 0l0 11.265627l-0.90625 0z" fill-rule="nonzero"/><path fill="#000000" d="m376.03873 19.522583q-0.09375 0.046875 -0.328125 0.1875l-0.84375 0.328125l0.84375 0.328125q0.234375 0.09375 0.328125 0.140625q0.09375 0.09375 0.09375 0.1875q0 0.09375 -0.046875 0.140625q-0.09375 0.09375 -0.1875 0.09375q-0.140625 0 -0.328125 -0.140625l-0.75 -0.65625l0.140625 0.984375q0.046875 0.140625 0.046875 0.234375q0 0.09375 -0.09375 0.1875q-0.046875 0.09375 -0.140625 0.09375q-0.140625 0 -0.1875 -0.09375q-0.046875 -0.09375 -0.046875 -0.1875q0 -0.09375 0 -0.234375l0.1875 -0.984375l-0.75 0.65625q-0.140625 0.140625 -0.328125 0.140625q-0.046875 0 -0.140625 -0.09375q-0.046875 -0.046875 -0.046875 -0.140625q0 -0.09375 0.046875 -0.1875q0.09375 -0.046875 0.375 -0.140625l0.796875 -0.328125l-0.796875 -0.328125q-0.28125 -0.140625 -0.375 -0.1875q-0.046875 -0.046875 -0.046875 -0.1875q0 -0.140625 0.046875 -0.140625q0.09375 -0.09375 0.140625 -0.09375q0.1875 0 0.328125 0.140625l0.75 0.703125l-0.140625 -1.03125q-0.046875 -0.140625 -0.046875 -0.234375q0 -0.140625 0.046875 -0.1875q0.09375 -0.046875 0.1875 -0.046875q0.140625 0 0.1875 0.046875q0.046875 0.046875 0.046875 0.1875q0 0.140625 0 0.234375l-0.1875 1.03125l0.75 -0.703125q0.1875 -0.140625 0.328125 -0.140625q0.09375 0 0.1875 0.09375q0.046875 0 0.046875 0.140625q0 0.140625 -0.09375 0.1875zm-1.265625 2.8125q0.9375 0 1.640625 -0.703125q0.65625 -0.65625 0.65625 -1.59375q0 -0.9375 -0.65625 -1.59375q-0.703125 -0.703125 -1.640625 -0.703125q-0.9375 0 -1.640625 0.703125q-0.65625 0.65625 -0.65625 1.59375q0 0.9375 0.65625 1.59375q0.703125 0.703125 1.640625 0.703125zm1.921875 -0.515625q-0.84375 0.84375 -1.921875 0.84375q-1.078125 0 -1.875 -0.796875q-0.75 -0.75 -0.75 -1.828125q0 -1.078125 0.703125 -1.78125q0.84375 -0.84375 1.921875 -0.84375q1.078125 0 1.875 0.796875q0.75 0.75 0.75 1.828125q0 1.078125 -0.703125 1.78125z" fill-rule="nonzero"/></g></svg>