<svg version="1.1" viewBox="0.0 0.0 337.08923884514434 338.8083989501312" fill="none" stroke="none" stroke-linecap="square" stroke-miterlimit="10" xmlns:xlink="http://www.w3.org/1999/xlink" xmlns="http://www.w3.org/2000/svg"><clipPath id="p.0"><path d="m0 0l337.08923 0l0 338.8084l-337.08923 0l0 -338.8084z" clip-rule="nonzero"/></clipPath><g clip-path="url(#p.0)"><path fill="#000000" fill-opacity="0.0" d="m0 0l337.08923 0l0 338.8084l-337.08923 0z" fill-rule="evenodd"/><path fill="#ff9900" d="m127.55118 173.34908l0 0c0 -18.864655 15.088364 -34.15747 33.70079 -34.15747l0 0c8.938004 0 17.509933 3.5987244 23.830063 10.004486c6.320114 6.405777 9.870728 15.093857 9.870728 24.152985l0 0c0 18.864655 -15.088364 34.157486 -33.70079 34.157486l0 0c-18.612427 0 -33.70079 -15.292831 -33.70079 -34.157486z" fill-rule="evenodd"/><path fill="#000000" fill-opacity="0.0" d="m137.42192 149.19609l47.66011 48.30597m0 -48.30597l-47.66011 48.30597" fill-rule="evenodd"/><path fill="#000000" fill-opacity="0.0" d="m127.55118 173.34908l0 0c0 -18.864655 15.088364 -34.15747 33.70079 -34.15747l0 0c8.938004 0 17.509933 3.5987244 23.830063 10.004486c6.320114 6.405777 9.870728 15.093857 9.870728 24.152985l0 0c0 18.864655 -15.088364 34.157486 -33.70079 34.157486l0 0c-18.612427 0 -33.70079 -15.292831 -33.70079 -34.157486z" fill-rule="evenodd"/><path stroke="#000000" stroke-width="1.0" stroke-linejoin="round" stroke-linecap="butt" d="m137.42192 149.19609l47.66011 48.30597m0 -48.30597l-47.66011 48.30597" fill-rule="evenodd"/><path stroke="#000000" stroke-width="1.0" stroke-linejoin="round" stroke-linecap="butt" d="m127.55118 173.34908l0 0c0 -18.864655 15.088364 -34.15747 33.70079 -34.15747l0 0c8.938004 0 17.509933 3.5987244 23.830063 10.004486c6.320114 6.405777 9.870728 15.093857 9.870728 24.152985l0 0c0 18.864655 -15.088364 34.157486 -33.70079 34.157486l0 0c-18.612427 0 -33.70079 -15.292831 -33.70079 -34.157486z" fill-rule="evenodd"/><path fill="#000000" d="m163.01724 202.26907l-1.640625 0l0 -10.453125q-0.59375 0.5625 -1.5625 1.140625q-0.953125 0.5625 -1.71875 0.84375l0 -1.59375q1.375 -0.640625 2.40625 -1.5625q1.03125 -0.921875 1.453125 -1.78125l1.0625 0l0 13.40625z" fill-rule="nonzero"/><path fill="#cfe2f3" d="m278.64304 142.3412l52.126007 0l0 53.32791l-8.687866 8.687836l-43.43814 0z" fill-rule="evenodd"/><path fill="#a5b4c2" d="m322.08118 204.35695l1.7375793 -6.9502563l6.950287 -1.7375793z" fill-rule="evenodd"/><path fill="#000000" fill-opacity="0.0" d="m322.08118 204.35695l1.7375793 -6.9502563l6.950287 -1.7375793l-8.687866 8.687836l-43.43814 0l0 -62.015747l52.126007 0l0 53.32791" fill-rule="evenodd"/><path stroke="#000000" stroke-width="1.0" stroke-linejoin="round" stroke-linecap="butt" d="m322.08118 204.35695l1.7375793 -6.9502563l6.950287 -1.7375793l-8.687866 8.687836l-43.43814 0l0 -62.015747l52.126007 0l0 53.32791" fill-rule="evenodd"/><path fill="#000000" d="m308.9088 174.34703l0 1.578125l-8.828125 0q-0.015625 -0.59375 0.1875 -1.140625q0.34375 -0.90625 1.078125 -1.78125q0.75 -0.875 2.15625 -2.015625q2.171875 -1.78125 2.9375 -2.828125q0.765625 -1.046875 0.765625 -1.96875q0 -0.984375 -0.703125 -1.640625q-0.6875 -0.671875 -1.8125 -0.671875q-1.1875 0 -1.90625 0.71875q-0.703125 0.703125 -0.703125 1.953125l-1.6875 -0.171875q0.171875 -1.890625 1.296875 -2.875q1.140625 -0.984375 3.03125 -0.984375q1.921875 0 3.046875 1.0625q1.125 1.0625 1.125 2.640625q0 0.796875 -0.328125 1.578125q-0.328125 0.78125 -1.09375 1.640625q-0.75 0.84375 -2.53125 2.34375q-1.46875 1.234375 -1.890625 1.6875q-0.421875 0.4375 -0.6875 0.875l6.546875 0z" fill-rule="nonzero"/><path fill="#cfe2f3" d="m278.64304 271.24146l52.126007 0l0 53.32791l-8.687866 8.687866l-43.43814 0z" fill-rule="evenodd"/><path fill="#a5b4c2" d="m322.08118 333.25723l1.7375793 -6.950287l6.950287 -1.7375793z" fill-rule="evenodd"/><path fill="#000000" fill-opacity="0.0" d="m322.08118 333.25723l1.7375793 -6.950287l6.950287 -1.7375793l-8.687866 8.687866l-43.43814 0l0 -62.015778l52.126007 0l0 53.32791" fill-rule="evenodd"/><path stroke="#000000" stroke-width="1.0" stroke-linejoin="round" stroke-linecap="butt" d="m322.08118 333.25723l1.7375793 -6.950287l6.950287 -1.7375793l-8.687866 8.687866l-43.43814 0l0 -62.015778l52.126007 0l0 53.32791" fill-rule="evenodd"/><path fill="#000000" d="m306.92688 303.35666l0.234375 1.453125q-0.6875 0.140625 -1.234375 0.140625q-0.890625 0 -1.390625 -0.28125q-0.484375 -0.28125 -0.6875 -0.734375q-0.203125 -0.46875 -0.203125 -1.9375l0 -5.578125l-1.203125 0l0 -1.265625l1.203125 0l0 -2.390625l1.625 -0.984375l0 3.375l1.65625 0l0 1.265625l-1.65625 0l0 5.671875q0 0.6875 0.078125 0.890625q0.09375 0.203125 0.28125 0.328125q0.203125 0.109375 0.578125 0.109375q0.265625 0 0.71875 -0.0625z" fill-rule="nonzero"/><path fill="#cfe2f3" d="m278.64304 52.992126l52.126007 0l0 53.32791l-8.687866 8.687836l-43.43814 0z" fill-rule="evenodd"/><path fill="#a5b4c2" d="m322.08118 115.00787l1.7375793 -6.9502716l6.950287 -1.7375641z" fill-rule="evenodd"/><path fill="#000000" fill-opacity="0.0" d="m322.08118 115.00787l1.7375793 -6.9502716l6.950287 -1.7375641l-8.687866 8.687836l-43.43814 0l0 -62.015747l52.126007 0l0 53.32791" fill-rule="evenodd"/><path stroke="#000000" stroke-width="1.0" stroke-linejoin="round" stroke-linecap="butt" d="m322.08118 115.00787l1.7375793 -6.9502716l6.950287 -1.7375641l-8.687866 8.687836l-43.43814 0l0 -62.015747l52.126007 0l0 53.32791" fill-rule="evenodd"/><path fill="#000000" d="m306.4713 86.57608l-1.640625 0l0 -10.453125q-0.59375 0.5625 -1.5625 1.140625q-0.953125 0.5625 -1.71875 0.84375l0 -1.59375q1.375 -0.640625 2.40625 -1.5625q1.03125 -0.921875 1.453125 -1.78125l1.0625 0l0 13.40625z" fill-rule="nonzero"/><path fill="#000000" fill-opacity="0.0" d="m278.64304 84.0l-93.5748 65.19685" fill-rule="evenodd"/><path stroke="#000000" stroke-width="1.0" stroke-linejoin="round" stroke-linecap="butt" d="m278.64304 84.0l-88.65187 61.766876" fill-rule="evenodd"/><path fill="#000000" stroke="#000000" stroke-width="1.0" stroke-linecap="butt" d="m189.04694 144.41165l-2.7792206 3.9494781l4.667694 -1.2390289z" fill-rule="evenodd"/><path fill="#000000" fill-opacity="0.0" d="m278.64304 173.34908l-83.68503 0" fill-rule="evenodd"/><path stroke="#000000" stroke-width="1.0" stroke-linejoin="round" stroke-linecap="butt" d="m278.64304 173.34908l-77.68503 0" fill-rule="evenodd"/><path fill="#000000" stroke="#000000" stroke-width="1.0" stroke-linecap="butt" d="m200.95801 171.69734l-4.538101 1.6517334l4.538101 1.6517334z" fill-rule="evenodd"/><path fill="#000000" fill-opacity="0.0" d="m278.64304 302.24933l-93.5748 -104.75589" fill-rule="evenodd"/><path stroke="#000000" stroke-width="1.0" stroke-linejoin="round" stroke-linecap="butt" d="m278.64304 302.24933l-89.57768 -100.28117" fill-rule="evenodd"/><path fill="#000000" stroke="#000000" stroke-width="1.0" stroke-linecap="butt" d="m190.2972 200.8678l-4.2550507 -2.2840881l1.7913666 4.4848022z" fill-rule="evenodd"/><path fill="#000000" fill-opacity="0.0" d="m120.1811 84.0l82.14173 0l0 37.76378l-82.14173 0z" fill-rule="evenodd"/><path fill="#000000" d="m130.71236 110.92l0 -13.359375l9.015625 0l0 1.578125l-7.25 0l0 4.140625l6.265625 0l0 1.578125l-6.265625 0l0 6.0625l-1.765625 0zm11.333481 0l0 -13.359375l5.921875 0q1.78125 0 2.703125 0.359375q0.9375 0.359375 1.484375 1.28125q0.5625 0.90625 0.5625 2.015625q0 1.40625 -0.921875 2.390625q-0.921875 0.96875 -2.84375 1.234375q0.703125 0.34375 1.078125 0.671875q0.765625 0.703125 1.453125 1.765625l2.328125 3.640625l-2.21875 0l-1.765625 -2.78125q-0.78125 -1.203125 -1.28125 -1.828125q-0.5 -0.640625 -0.90625 -0.890625q-0.390625 -0.265625 -0.796875 -0.359375q-0.296875 -0.078125 -0.984375 -0.078125l-2.046875 0l0 5.9375l-1.765625 0zm1.765625 -7.453125l3.796875 0q1.21875 0 1.890625 -0.25q0.6875 -0.265625 1.046875 -0.8125q0.359375 -0.546875 0.359375 -1.1875q0 -0.953125 -0.6875 -1.5625q-0.6875 -0.609375 -2.1875 -0.609375l-4.21875 0l0 4.421875zm11.144821 0.953125q0 -3.328125 1.78125 -5.203125q1.78125 -1.890625 4.609375 -1.890625q1.84375 0 3.328125 0.890625q1.484375 0.875 2.265625 2.46875q0.78125 1.578125 0.78125 3.578125q0 2.03125 -0.828125 3.640625q-0.8125 1.59375 -2.3125 2.421875q-1.5 0.828125 -3.25 0.828125q-1.875 0 -3.359375 -0.90625q-1.484375 -0.921875 -2.25 -2.5q-0.765625 -1.578125 -0.765625 -3.328125zm1.8125 0.015625q0 2.421875 1.296875 3.8125q1.296875 1.390625 3.265625 1.390625q2.0 0 3.28125 -1.40625q1.28125 -1.40625 1.28125 -3.984375q0 -1.625 -0.546875 -2.84375q-0.546875 -1.21875 -1.609375 -1.875q-1.0625 -0.671875 -2.375 -0.671875q-1.890625 0 -3.25 1.296875q-1.34375 1.28125 -1.34375 4.28125zm13.183304 6.484375l0 -13.359375l2.65625 0l3.15625 9.453125q0.4375 1.328125 0.640625 1.984375q0.234375 -0.734375 0.703125 -2.140625l3.203125 -9.296875l2.375 0l0 13.359375l-1.703125 0l0 -11.171875l-3.875 11.171875l-1.59375 0l-3.859375 -11.375l0 11.375l-1.703125 0z" fill-rule="nonzero"/><path fill="#000000" d="m129.71236 129.12312l1.59375 -0.21875q0.078125 1.53125 0.578125 2.109375q0.515625 0.5625 1.421875 0.5625q0.65625 0 1.140625 -0.296875q0.484375 -0.3125 0.65625 -0.828125q0.1875 -0.53125 0.1875 -1.6875l0 -9.203125l1.765625 0l0 9.109375q0 1.671875 -0.40625 2.59375q-0.40625 0.921875 -1.28125 1.40625q-0.875 0.484375 -2.0625 0.484375q-1.75 0 -2.6875 -1.015625q-0.9375 -1.015625 -0.90625 -3.015625zm9.703125 -2.703125q0 -3.328125 1.78125 -5.203125q1.78125 -1.890625 4.609375 -1.890625q1.84375 0 3.328125 0.890625q1.484375 0.875 2.265625 2.46875q0.78125 1.578125 0.78125 3.578125q0 2.03125 -0.828125 3.640625q-0.8125 1.59375 -2.3125 2.421875q-1.5 0.828125 -3.25 0.828125q-1.875 0 -3.359375 -0.90625q-1.484375 -0.921875 -2.25 -2.5q-0.765625 -1.578125 -0.765625 -3.328125zm1.8125 0.015625q0 2.421875 1.296875 3.8125q1.296875 1.390625 3.265625 1.390625q2.0 0 3.28125 -1.40625q1.28125 -1.40625 1.28125 -3.984375q0 -1.625 -0.546875 -2.84375q-0.546875 -1.21875 -1.609375 -1.875q-1.0625 -0.671875 -2.375 -0.671875q-1.890625 0 -3.25 1.296875q-1.34375 1.28125 -1.34375 4.28125zm13.527054 6.484375l0 -13.359375l1.765625 0l0 13.359375l-1.765625 0zm4.870804 0l0 -13.359375l1.8125 0l7.015625 10.484375l0 -10.484375l1.6875 0l0 13.359375l-1.8125 0l-7.015625 -10.5l0 10.5l-1.6875 0z" fill-rule="nonzero"/><path fill="#cfe2f3" d="m16.56168 144.31233l52.125988 0l0 53.32791l-8.687843 8.687836l-43.438145 0z" fill-rule="evenodd"/><path fill="#a5b4c2" d="m59.999825 206.32808l1.7375679 -6.9502716l6.9502754 -1.7375641z" fill-rule="evenodd"/><path fill="#000000" fill-opacity="0.0" d="m59.999825 206.32808l1.7375679 -6.9502716l6.9502754 -1.7375641l-8.687843 8.687836l-43.438145 0l0 -62.015747l52.125988 0l0 53.32791" fill-rule="evenodd"/><path stroke="#000000" stroke-width="1.0" stroke-linejoin="round" stroke-linecap="butt" d="m59.999825 206.32808l1.7375679 -6.9502716l6.9502754 -1.7375641l-8.687843 8.687836l-43.438145 0l0 -62.015747l52.125988 0l0 53.32791" fill-rule="evenodd"/><path fill="#000000" fill-opacity="0.0" d="m127.54462 173.34908l-58.04724 0" fill-rule="evenodd"/><path stroke="#000000" stroke-width="1.0" stroke-linejoin="round" stroke-linecap="butt" d="m127.54462 173.34908l-52.04724 0" fill-rule="evenodd"/><path fill="#000000" stroke="#000000" stroke-width="1.0" stroke-linecap="butt" d="m75.497375 171.69734l-4.538101 1.6517334l4.538101 1.6517334z" fill-rule="evenodd"/><path fill="#000000" fill-opacity="0.0" d="m270.91602 6.1601048l83.68503 0l0 29.543306l-83.68503 0z" fill-rule="evenodd"/><path fill="#000000" d="m281.1504 21.611353l0 -1.890625l1.640625 0l0 1.890625l-1.640625 0zm0 11.468752l0 -9.671877l1.640625 0l0 9.671877l-1.640625 0zm4.144806 0l0 -9.671877l1.46875 0l0 1.375q1.0625 -1.59375 3.078125 -1.59375q0.875 0 1.609375 0.3125q0.734375 0.3125 1.09375 0.828125q0.375 0.5 0.515625 1.203125q0.09375 0.453125 0.09375 1.59375l0 5.953127l-1.640625 0l0 -5.890627q0 -1.0 -0.203125 -1.484375q-0.1875 -0.5 -0.671875 -0.796875q-0.484375 -0.296875 -1.140625 -0.296875q-1.046875 0 -1.8125 0.671875q-0.75 0.65625 -0.75 2.515625l0 5.281252l-1.640625 0zm10.375732 3.703125l0 -13.375002l1.484375 0l0 1.25q0.53125 -0.734375 1.1875 -1.09375q0.671875 -0.375 1.625 -0.375q1.234375 0 2.171875 0.640625q0.953125 0.625 1.4375 1.796875q0.484375 1.15625 0.484375 2.546875q0 1.484375 -0.53125 2.671875q-0.53125 1.1875019 -1.546875 1.8281269q-1.015625 0.625 -2.140625 0.625q-0.8125 0 -1.46875 -0.34375q-0.65625 -0.34375 -1.0625 -0.875l0 4.703125l-1.640625 0zm1.484375 -8.484377q0 1.859375 0.75 2.765625q0.765625 0.890625 1.828125 0.890625q1.09375 0 1.875 -0.921875q0.78125 -0.9375 0.78125 -2.875q0 -1.84375 -0.765625 -2.765625q-0.75 -0.921875 -1.8125 -0.921875q-1.046875 0 -1.859375 0.984375q-0.796875 0.96875 -0.796875 2.84375zm15.219452 4.781252l0 -1.4218769q-1.125 1.6406269 -3.0625 1.6406269q-0.859375 0 -1.609375 -0.328125q-0.734375 -0.328125 -1.09375 -0.828125q-0.359375 -0.5000019 -0.5 -1.2187519q-0.109375 -0.46875 -0.109375 -1.53125l0 -5.984375l1.640625 0l0 5.359375q0 1.28125 0.109375 1.734375q0.15625 0.640625 0.65625 1.015625q0.5 0.375 1.234375 0.375q0.734375 0 1.375 -0.375q0.65625 -0.390625 0.921875 -1.03125q0.265625 -0.65625 0.265625 -1.890625l0 -5.1875l1.640625 0l0 9.671877l-1.46875 0zm7.6257324 -1.4687519l0.234375 1.4531269q-0.6875 0.140625 -1.234375 0.140625q-0.890625 0 -1.390625 -0.28125q-0.484375 -0.28125 -0.6875 -0.734375q-0.203125 -0.4687519 -0.203125 -1.9375019l0 -5.578125l-1.203125 0l0 -1.265625l1.203125 0l0 -2.390625l1.625 -0.984375l0 3.375l1.65625 0l0 1.265625l-1.65625 0l0 5.671875q0 0.6875 0.078125 0.890625q0.09375 0.203125 0.28125 0.328125q0.203125 0.109375 0.578125 0.109375q0.265625 0 0.71875 -0.0625zm0.9489136 -1.421875l1.625 -0.25q0.125 0.96875 0.75 1.5q0.625 0.515625 1.75 0.515625q1.125 0 1.671875 -0.453125q0.546875 -0.46875 0.546875 -1.09375q0 -0.546875 -0.484375 -0.875q-0.328125 -0.21875 -1.671875 -0.546875q-1.8125 -0.46875 -2.515625 -0.796875q-0.6875 -0.328125 -1.046875 -0.90625q-0.359375 -0.59375 -0.359375 -1.3125q0 -0.640625 0.296875 -1.1875q0.296875 -0.5625 0.8125 -0.921875q0.375 -0.28125 1.03125 -0.46875q0.671875 -0.203125 1.421875 -0.203125q1.140625 0 2.0 0.328125q0.859375 0.328125 1.265625 0.890625q0.421875 0.5625 0.578125 1.5l-1.609375 0.21875q-0.109375 -0.75 -0.640625 -1.171875q-0.515625 -0.421875 -1.46875 -0.421875q-1.140625 0 -1.625 0.375q-0.46875 0.375 -0.46875 0.875q0 0.3125 0.1875 0.578125q0.203125 0.265625 0.640625 0.4375q0.234375 0.09375 1.4375 0.421875q1.75 0.453125 2.4375 0.75q0.6875 0.296875 1.078125 0.859375q0.390625 0.5625 0.390625 1.40625q0 0.828125 -0.484375 1.546875q-0.46875 0.7187519 -1.375 1.1250019q-0.90625 0.390625 -2.046875 0.390625q-1.875 0 -2.875 -0.78125q-0.984375 -0.7812519 -1.25 -2.328127z" fill-rule="nonzero"/><path fill="#000000" fill-opacity="0.0" d="m6.4514437 102.396324l72.34645 0l0 32.34646l-72.34645 0z" fill-rule="evenodd"/><path fill="#000000" d="m16.076443 124.47257q0 -2.6875 1.484375 -3.96875q1.25 -1.078125 3.046875 -1.078125q2.0 0 3.265625 1.3125q1.265625 1.296875 1.265625 3.609375q0 1.859375 -0.5625 2.9375q-0.5625 1.0625076 -1.640625 1.6562576q-1.0625 0.59375 -2.328125 0.59375q-2.03125 0 -3.28125 -1.296875q-1.25 -1.3125076 -1.25 -3.7656326zm1.6875 0q0 1.859375 0.796875 2.796875q0.8125 0.9218826 2.046875 0.9218826q1.21875 0 2.03125 -0.9218826q0.8125 -0.9375 0.8125 -2.84375q0 -1.796875 -0.8125 -2.71875q-0.8125 -0.921875 -2.03125 -0.921875q-1.234375 0 -2.046875 0.921875q-0.796875 0.90625 -0.796875 2.765625zm15.625717 4.8437576l0 -1.4218826q-1.125 1.6406326 -3.0625 1.6406326q-0.859375 0 -1.609375 -0.328125q-0.734375 -0.328125 -1.09375 -0.828125q-0.359375 -0.5000076 -0.5 -1.2187576q-0.109375 -0.46875 -0.109375 -1.53125l0 -5.984375l1.640625 0l0 5.359375q0 1.28125 0.109375 1.734375q0.15625 0.640625 0.65625 1.015625q0.5 0.37500763 1.234375 0.37500763q0.734375 0 1.375 -0.37500763q0.65625 -0.390625 0.921875 -1.03125q0.265625 -0.65625 0.265625 -1.890625l0 -5.1875l1.640625 0l0 9.671883l-1.46875 0zm7.625717 -1.4687576l0.234375 1.4531326q-0.6875 0.140625 -1.234375 0.140625q-0.890625 0 -1.390625 -0.28125q-0.484375 -0.28125 -0.6875 -0.734375q-0.203125 -0.46875763 -0.203125 -1.9375076l0 -5.578125l-1.203125 0l0 -1.265625l1.203125 0l0 -2.390625l1.625 -0.984375l0 3.375l1.65625 0l0 1.265625l-1.65625 0l0 5.671875q0 0.6875 0.078125 0.890625q0.09375 0.203125 0.28125 0.328125q0.203125 0.109375 0.578125 0.109375q0.265625 0 0.71875 -0.0625zm1.6051788 5.1718826l0 -13.375008l1.484375 0l0 1.25q0.53125 -0.734375 1.1875 -1.09375q0.671875 -0.375 1.625 -0.375q1.234375 0 2.171875 0.640625q0.953125 0.625 1.4375 1.796875q0.484375 1.15625 0.484375 2.546875q0 1.484375 -0.53125 2.671875q-0.53125 1.1875076 -1.546875 1.8281326q-1.015625 0.625 -2.140625 0.625q-0.8125 0 -1.46875 -0.34375q-0.65625 -0.34375 -1.0625 -0.875l0 4.703125l-1.640625 0zm1.484375 -8.484383q0 1.859375 0.75 2.765625q0.765625 0.8906326 1.828125 0.8906326q1.09375 0 1.875 -0.9218826q0.78125 -0.9375 0.78125 -2.875q0 -1.84375 -0.765625 -2.765625q-0.75 -0.921875 -1.8125 -0.921875q-1.046875 0 -1.859375 0.984375q-0.796875 0.96875 -0.796875 2.84375zm15.219467 4.7812576l0 -1.4218826q-1.125 1.6406326 -3.0625 1.6406326q-0.859375 0 -1.609375 -0.328125q-0.734375 -0.328125 -1.09375 -0.828125q-0.359375 -0.5000076 -0.5 -1.2187576q-0.109375 -0.46875 -0.109375 -1.53125l0 -5.984375l1.640625 0l0 5.359375q0 1.28125 0.109375 1.734375q0.15625 0.640625 0.65625 1.015625q0.5 0.37500763 1.234375 0.37500763q0.734375 0 1.375 -0.37500763q0.65625 -0.390625 0.921875 -1.03125q0.265625 -0.65625 0.265625 -1.890625l0 -5.1875l1.640625 0l0 9.671883l-1.46875 0zm7.625721 -1.4687576l0.234375 1.4531326q-0.6875 0.140625 -1.234375 0.140625q-0.890625 0 -1.390625 -0.28125q-0.484375 -0.28125 -0.6875038 -0.734375q-0.203125 -0.46875763 -0.203125 -1.9375076l0 -5.578125l-1.203125 0l0 -1.265625l1.203125 0l0 -2.390625l1.6250038 -0.984375l0 3.375l1.65625 0l0 1.265625l-1.65625 0l0 5.671875q0 0.6875 0.078125 0.890625q0.09375 0.203125 0.28125 0.328125q0.203125 0.109375 0.578125 0.109375q0.265625 0 0.71875 -0.0625z" fill-rule="nonzero"/><path fill="#000000" fill-opacity="0.0" d="m84.00525 135.48032l28.818901 0l0 37.76378l-28.818901 0z" fill-rule="evenodd"/><path fill="#000000" d="m93.63025 162.40031l2.015625 -9.671875l1.5 0l-0.359375 1.6875q0.96875 -1.0 1.8125 -1.453125q0.859375 -0.453125 1.734375 -0.453125q1.1875 0 1.84375 0.640625q0.671875 0.625 0.671875 1.703125q0 0.53125 -0.234375 1.6875l-1.234375 5.859375l-1.640625 0l1.28125 -6.125q0.1875 -0.890625 0.1875 -1.328125q0 -0.484375 -0.328125 -0.78125q-0.328125 -0.296875 -0.953125 -0.296875q-1.28125 0 -2.265625 0.90625q-0.984375 0.90625 -1.453125 3.125l-0.9375 4.5l-1.640625 0z" fill-rule="nonzero"/><path fill="#000000" fill-opacity="0.0" d="m132.22835 208.11285l58.04724 0l0 37.763794l-58.04724 0z" fill-rule="evenodd"/><path fill="#000000" d="m142.1346 228.53285q0 -3.328125 1.78125 -5.203125q1.78125 -1.890625 4.609375 -1.890625q1.84375 0 3.328125 0.890625q1.484375 0.875 2.265625 2.46875q0.78125 1.578125 0.78125 3.578125q0 2.03125 -0.828125 3.640625q-0.8125 1.59375 -2.3125 2.421875q-1.5 0.828125 -3.25 0.828125q-1.875 0 -3.359375 -0.90625q-1.484375 -0.921875 -2.25 -2.5q-0.765625 -1.578125 -0.765625 -3.328125zm1.8125 0.015625q0 2.421875 1.296875 3.8125q1.296875 1.390625 3.265625 1.390625q2.0 0 3.28125 -1.40625q1.28125 -1.40625 1.28125 -3.984375q0 -1.625 -0.546875 -2.84375q-0.546875 -1.21875 -1.609375 -1.875q-1.0625 -0.671875 -2.375 -0.671875q-1.890625 0 -3.25 1.296875q-1.34375 1.28125 -1.34375 4.28125zm16.152054 10.40625q-1.359375 -1.703125 -2.296875 -4.0q-0.9375 -2.296875 -0.9375 -4.765625q0 -2.15625 0.703125 -4.140625q0.828125 -2.3125 2.53125 -4.59375l1.171875 0q-1.09375 1.890625 -1.453125 2.703125q-0.546875 1.25 -0.875 2.625q-0.390625 1.703125 -0.390625 3.421875q0 4.375 2.71875 8.75l-1.171875 0zm6.665802 -5.390625l0.234375 1.453125q-0.6875 0.140625 -1.234375 0.140625q-0.890625 0 -1.390625 -0.28125q-0.484375 -0.28125 -0.6875 -0.734375q-0.203125 -0.46875 -0.203125 -1.9375l0 -5.578125l-1.203125 0l0 -1.265625l1.203125 0l0 -2.390625l1.625 -0.984375l0 3.375l1.65625 0l0 1.265625l-1.65625 0l0 5.671875q0 0.6875 0.078125 0.890625q0.09375 0.203125 0.28125 0.328125q0.203125 0.109375 0.578125 0.109375q0.265625 0 0.71875 -0.0625zm2.4801788 -1.84375l-0.5 -7.078125l0 -2.96875l2.03125 0l0 2.96875l-0.484375 7.078125l-1.046875 0zm-0.4375 3.3125l0 -1.875l1.890625 0l0 1.875l-1.890625 0zm5.823929 3.921875l-1.1875 0q2.734375 -4.375 2.734375 -8.75q0 -1.71875 -0.390625 -3.390625q-0.3125 -1.375 -0.875 -2.625q-0.359375 -0.828125 -1.46875 -2.734375l1.1875 0q1.703125 2.28125 2.53125 4.59375q0.6875 1.984375 0.6875 4.140625q0 2.46875 -0.9375 4.765625q-0.9375 2.296875 -2.28125 4.0z" fill-rule="nonzero"/><path fill="#000000" fill-opacity="0.0" d="m286.09186 221.62599l37.228363 0l0 32.34645l-37.228363 0z" fill-rule="evenodd"/><path fill="#000000" d="m296.77936 248.54599l0 -1.875l1.875 0l0 1.875l-1.875 0zm5.183319 0l0 -1.875l1.875 0l0 1.875l-1.875 0zm5.1832886 0l0 -1.875l1.875 0l0 1.875l-1.875 0z" fill-rule="nonzero"/></g></svg>